<?xml version="1.0" encoding="utf-8" standalone="no"?>
<!DOCTYPE svg PUBLIC "-//W3C//DTD SVG 1.1//EN"
  "http://www.w3.org/Graphics/SVG/1.1/DTD/svg11.dtd">
<!-- Created with matplotlib (https://matplotlib.org/) -->
<svg height="288pt" version="1.1" viewBox="0 0 432 288" width="432pt" xmlns="http://www.w3.org/2000/svg" xmlns:xlink="http://www.w3.org/1999/xlink">
 <metadata>
  <rdf:RDF xmlns:cc="http://creativecommons.org/ns#" xmlns:dc="http://purl.org/dc/elements/1.1/" xmlns:rdf="http://www.w3.org/1999/02/22-rdf-syntax-ns#">
   <cc:Work>
    <dc:type rdf:resource="http://purl.org/dc/dcmitype/StillImage"/>
    <dc:date>2021-07-10T14:27:06.097080</dc:date>
    <dc:format>image/svg+xml</dc:format>
    <dc:creator>
     <cc:Agent>
      <dc:title>Matplotlib v3.3.4, https://matplotlib.org/</dc:title>
     </cc:Agent>
    </dc:creator>
   </cc:Work>
  </rdf:RDF>
 </metadata>
 <defs>
  <style type="text/css">*{stroke-linecap:butt;stroke-linejoin:round;}</style>
 </defs>
 <g id="figure_1">
  <g id="patch_1">
   <path d="M 0 288 
L 432 288 
L 432 0 
L 0 0 
z
" style="fill:none;"/>
  </g>
  <g id="axes_1">
   <g id="patch_2">
    <path d="M 54 252 
L 388.8 252 
L 388.8 34.56 
L 54 34.56 
z
" style="fill:#ffffff;"/>
   </g>
   <g id="PathCollection_1">
    <path clip-path="url(#pe73ec6859a)" d="M 58.782857 252 
L 63.565714 252 
L 68.348571 252 
L 73.131429 252 
L 77.914286 252 
L 82.697143 252 
L 87.48 252 
L 92.262857 252 
L 97.045714 252 
L 101.828571 252 
L 106.611429 252 
L 111.394286 252 
L 116.177143 252 
L 120.96 252 
L 125.742857 252 
L 130.525714 252 
L 135.308571 252 
L 140.091429 252 
L 144.874286 252 
L 149.657143 252 
L 154.44 252 
L 159.222857 252 
L 164.005714 252 
L 168.788571 252 
L 173.571429 252 
L 178.354286 252 
L 183.137143 252 
L 187.92 252 
L 192.702857 252 
L 197.485714 252 
L 202.268571 252 
L 207.051429 252 
L 211.834286 252 
L 216.617143 252 
L 221.4 252 
L 226.182857 252 
L 230.965714 252 
L 235.748571 252 
L 240.531429 252 
L 245.314286 252 
L 250.097143 252 
L 254.88 252 
L 259.662857 252 
L 264.445714 252 
L 269.228571 252 
L 274.011429 252 
L 278.794286 252 
L 283.577143 252 
L 288.36 252 
L 293.142857 252 
L 297.925714 252 
L 302.708571 252 
L 307.491429 252 
L 312.274286 252 
L 317.057143 252 
L 321.84 252 
L 326.622857 252 
L 331.405714 252 
L 336.188571 252 
L 340.971429 252 
L 345.754286 252 
L 350.537143 252 
L 355.32 252 
L 360.102857 252 
L 364.885714 252 
L 369.668571 252 
L 374.451429 252 
L 379.234286 252 
L 384.017143 252 
L 388.8 252 
L 388.8 248.893714 
L 388.8 245.787429 
L 388.8 242.681143 
L 388.8 239.574857 
L 388.8 236.468571 
L 388.8 233.362286 
L 388.8 230.256 
L 388.8 227.149714 
L 388.8 224.043429 
L 388.8 220.937143 
L 388.8 217.830857 
L 388.8 214.724571 
L 388.8 211.618286 
L 388.8 208.512 
L 388.8 205.405714 
L 388.8 202.299429 
L 388.8 199.193143 
L 388.8 196.086857 
L 388.8 192.980571 
L 388.8 189.874286 
L 388.8 186.768 
L 388.8 183.661714 
L 388.8 180.555429 
L 388.8 177.449143 
L 388.8 174.342857 
L 388.8 171.236571 
L 388.8 168.130286 
L 388.8 165.024 
L 388.8 161.917714 
L 388.8 158.811429 
L 388.8 155.705143 
L 388.8 152.598857 
L 388.8 149.492571 
L 388.8 146.386286 
L 388.8 143.28 
L 388.8 140.173714 
L 388.8 137.067429 
L 388.8 133.961143 
L 388.8 130.854857 
L 388.8 127.748571 
L 388.8 124.642286 
L 388.8 121.536 
L 388.8 118.429714 
L 388.8 115.323429 
L 388.8 112.217143 
L 388.8 109.110857 
L 388.8 106.004571 
L 388.8 102.898286 
L 388.8 99.792 
L 388.8 96.685714 
L 388.8 93.579429 
L 388.8 90.473143 
L 388.8 87.366857 
L 388.8 84.260571 
L 388.8 81.154286 
L 388.8 78.048 
L 388.8 74.941714 
L 388.8 71.835429 
L 388.8 68.729143 
L 388.8 65.622857 
L 388.8 62.516571 
L 388.8 59.410286 
L 388.8 56.304 
L 388.8 53.197714 
L 388.8 50.091429 
L 388.8 46.985143 
L 388.8 43.878857 
L 388.8 40.772571 
L 388.8 37.666286 
L 388.8 34.56 
L 384.017143 34.56 
L 379.234286 34.56 
L 374.451429 34.56 
L 369.668571 34.56 
L 364.885714 34.56 
L 360.102857 34.56 
L 355.32 34.56 
L 350.537143 34.56 
L 345.754286 34.56 
L 340.971429 34.56 
L 336.188571 34.56 
L 331.405714 34.56 
L 326.622857 34.56 
L 321.84 34.56 
L 317.057143 34.56 
L 312.274286 34.56 
L 307.491429 34.56 
L 302.708571 34.56 
L 297.925714 34.56 
L 293.142857 34.56 
L 288.36 34.56 
L 283.577143 34.56 
L 278.794286 34.56 
L 274.011429 34.56 
L 269.228571 34.56 
L 264.445714 34.56 
L 259.662857 34.56 
L 254.88 34.56 
L 250.097143 34.56 
L 245.314286 34.56 
L 240.531429 34.56 
L 235.748571 34.56 
L 230.965714 34.56 
L 226.182857 34.56 
L 221.4 34.56 
L 216.617143 34.56 
L 211.834286 34.56 
L 207.051429 34.56 
L 202.268571 34.56 
L 197.485714 34.56 
L 192.702857 34.56 
L 187.92 34.56 
L 183.137143 34.56 
L 178.354286 34.56 
L 173.571429 34.56 
L 168.788571 34.56 
L 164.005714 34.56 
L 159.222857 34.56 
L 154.44 34.56 
L 149.657143 34.56 
L 144.874286 34.56 
L 140.091429 34.56 
L 135.308571 34.56 
L 130.525714 34.56 
L 125.742857 34.56 
L 120.96 34.56 
L 116.177143 34.56 
L 111.394286 34.56 
L 106.611429 34.56 
L 101.828571 34.56 
L 97.045714 34.56 
L 92.262857 34.56 
L 87.48 34.56 
L 82.697143 34.56 
L 77.914286 34.56 
L 73.131429 34.56 
L 68.348571 34.56 
L 63.565714 34.56 
L 58.782857 34.56 
L 54 34.56 
L 54 37.666286 
L 54 40.772571 
L 54 43.878857 
L 54 46.985143 
L 54 50.091429 
L 54 53.197714 
L 54 56.304 
L 54 59.410286 
L 54 62.516571 
L 54 65.622857 
L 54 68.729143 
L 54 71.835429 
L 54 74.941714 
L 54 78.048 
L 54 81.154286 
L 54 84.260571 
L 54 87.366857 
L 54 90.473143 
L 54 93.579429 
L 54 96.685714 
L 54 99.792 
L 54 102.898286 
L 54 106.004571 
L 54 109.110857 
L 54 112.217143 
L 54 115.323429 
L 54 118.429714 
L 54 121.536 
L 54 124.642286 
L 54 127.748571 
L 54 130.854857 
L 54 133.961143 
L 54 137.067429 
L 54 140.173714 
L 54 143.28 
L 54 146.386286 
L 54 149.492571 
L 54 152.598857 
L 54 155.705143 
L 54 158.811429 
L 54 161.917714 
L 54 165.024 
L 54 168.130286 
L 54 171.236571 
L 54 174.342857 
L 54 177.449143 
L 54 180.555429 
L 54 183.661714 
L 54 186.768 
L 54 189.874286 
L 54 192.980571 
L 54 196.086857 
L 54 199.193143 
L 54 202.299429 
L 54 205.405714 
L 54 208.512 
L 54 211.618286 
L 54 214.724571 
L 54 217.830857 
L 54 220.937143 
L 54 224.043429 
L 54 227.149714 
L 54 230.256 
L 54 233.362286 
L 54 236.468571 
L 54 239.574857 
L 54 242.681143 
L 54 245.787429 
L 54 248.893714 
L 54 252 
z
M 131.459109 239.574857 
L 130.525714 239.393126 
L 125.742857 238.141498 
L 121.187193 236.468571 
L 120.96 236.372006 
L 116.177143 233.829823 
L 115.457259 233.362286 
L 111.759836 230.256 
L 111.394286 229.830535 
L 109.30671 227.149714 
L 107.780661 224.043429 
L 106.967496 220.937143 
L 106.716829 217.830857 
L 106.929912 214.724571 
L 107.546334 211.618286 
L 108.535807 208.512 
L 109.893533 205.405714 
L 111.394286 202.724893 
L 111.608926 202.299429 
L 113.500321 199.193143 
L 115.785293 196.086857 
L 116.177143 195.61932 
L 118.22076 192.980571 
L 120.96 189.970851 
L 121.042078 189.874286 
L 123.958724 186.768 
L 125.742857 185.095074 
L 127.196198 183.661714 
L 130.525714 180.73716 
L 130.724513 180.555429 
L 134.391094 177.449143 
L 135.308571 176.73362 
L 138.307296 174.342857 
L 140.091429 173.025298 
L 142.485999 171.236571 
L 144.874286 169.563303 
L 146.917903 168.130286 
L 149.657143 166.30644 
L 151.602097 165.024 
L 154.44 163.225511 
L 156.546035 161.917714 
L 159.222857 160.300774 
L 161.765961 158.811429 
L 164.005714 157.520221 
L 167.287819 155.705143 
L 168.788571 154.878469 
L 173.148716 152.598857 
L 173.571429 152.376135 
L 178.354286 149.942921 
L 179.289191 149.492571 
L 183.137143 147.60012 
L 185.802758 146.386286 
L 187.92 145.390458 
L 192.702857 143.323893 
L 192.808258 143.28 
L 197.485714 141.241719 
L 200.199921 140.173714 
L 202.268571 139.312069 
L 207.051429 137.484361 
L 208.220661 137.067429 
L 211.834286 135.685539 
L 216.617143 134.065036 
L 216.941644 133.961143 
L 221.4 132.410306 
L 226.182857 130.95875 
L 226.548407 130.854857 
L 230.965714 129.472967 
L 235.748571 128.165503 
L 237.424859 127.748571 
L 240.531429 126.886927 
L 245.314286 125.710291 
L 250.097143 124.686178 
L 250.324336 124.642286 
L 254.88 123.646458 
L 259.662857 122.749835 
L 264.445714 121.986349 
L 267.788427 121.536 
L 269.228571 121.313278 
L 274.011429 120.709326 
L 278.794286 120.244793 
L 283.577143 119.91906 
L 288.36 119.737511 
L 293.142857 119.712154 
L 297.925714 119.862731 
L 302.708571 120.218441 
L 307.491429 120.820477 
L 311.340891 121.536 
L 312.274286 121.717731 
L 317.057143 122.969359 
L 321.612807 124.642286 
L 321.84 124.738851 
L 326.622857 127.281034 
L 327.342741 127.748571 
L 331.040164 130.854857 
L 331.405714 131.280322 
L 333.49329 133.961143 
L 335.019339 137.067429 
L 335.832504 140.173714 
L 336.083171 143.28 
L 335.870088 146.386286 
L 335.253666 149.492571 
L 334.264193 152.598857 
L 332.906467 155.705143 
L 331.405714 158.385964 
L 331.191074 158.811429 
L 329.299679 161.917714 
L 327.014707 165.024 
L 326.622857 165.491537 
L 324.57924 168.130286 
L 321.84 171.140006 
L 321.757922 171.236571 
L 318.841276 174.342857 
L 317.057143 176.015784 
L 315.603802 177.449143 
L 312.274286 180.373697 
L 312.075487 180.555429 
L 308.408906 183.661714 
L 307.491429 184.377237 
L 304.492704 186.768 
L 302.708571 188.085559 
L 300.314001 189.874286 
L 297.925714 191.547554 
L 295.882097 192.980571 
L 293.142857 194.804417 
L 291.197903 196.086857 
L 288.36 197.885346 
L 286.253965 199.193143 
L 283.577143 200.810083 
L 281.034039 202.299429 
L 278.794286 203.590636 
L 275.512181 205.405714 
L 274.011429 206.232388 
L 269.651284 208.512 
L 269.228571 208.734722 
L 264.445714 211.167937 
L 263.510809 211.618286 
L 259.662857 213.510737 
L 256.997242 214.724571 
L 254.88 215.720399 
L 250.097143 217.786965 
L 249.991742 217.830857 
L 245.314286 219.869138 
L 242.600079 220.937143 
L 240.531429 221.798788 
L 235.748571 223.626497 
L 234.579339 224.043429 
L 230.965714 225.425318 
L 226.182857 227.045821 
L 225.858356 227.149714 
L 221.4 228.700552 
L 216.617143 230.152107 
L 216.251593 230.256 
L 211.834286 231.63789 
L 207.051429 232.945354 
L 205.375141 233.362286 
L 202.268571 234.223931 
L 197.485714 235.400567 
L 192.702857 236.424679 
L 192.475664 236.468571 
L 187.92 237.464399 
L 183.137143 238.361023 
L 178.354286 239.124508 
L 175.011573 239.574857 
L 173.571429 239.797579 
L 168.788571 240.401531 
L 164.005714 240.866064 
L 159.222857 241.191797 
L 154.44 241.373346 
L 149.657143 241.398703 
L 144.874286 241.248126 
L 140.091429 240.892416 
L 135.308571 240.29038 
z
" style="fill:#feeddb;fill-opacity:0.97;"/>
   </g>
   <g id="PathCollection_2">
    <path clip-path="url(#pe73ec6859a)" d="M 135.308571 240.29038 
L 140.091429 240.892416 
L 144.874286 241.248126 
L 149.657143 241.398703 
L 154.44 241.373346 
L 159.222857 241.191797 
L 164.005714 240.866064 
L 168.788571 240.401531 
L 173.571429 239.797579 
L 175.011573 239.574857 
L 178.354286 239.124508 
L 183.137143 238.361023 
L 187.92 237.464399 
L 192.475664 236.468571 
L 192.702857 236.424679 
L 197.485714 235.400567 
L 202.268571 234.223931 
L 205.375141 233.362286 
L 207.051429 232.945354 
L 211.834286 231.63789 
L 216.251593 230.256 
L 216.617143 230.152107 
L 221.4 228.700552 
L 225.858356 227.149714 
L 226.182857 227.045821 
L 230.965714 225.425318 
L 234.579339 224.043429 
L 235.748571 223.626497 
L 240.531429 221.798788 
L 242.600079 220.937143 
L 245.314286 219.869138 
L 249.991742 217.830857 
L 250.097143 217.786965 
L 254.88 215.720399 
L 256.997242 214.724571 
L 259.662857 213.510737 
L 263.510809 211.618286 
L 264.445714 211.167937 
L 269.228571 208.734722 
L 269.651284 208.512 
L 274.011429 206.232388 
L 275.512181 205.405714 
L 278.794286 203.590636 
L 281.034039 202.299429 
L 283.577143 200.810083 
L 286.253965 199.193143 
L 288.36 197.885346 
L 291.197903 196.086857 
L 293.142857 194.804417 
L 295.882097 192.980571 
L 297.925714 191.547554 
L 300.314001 189.874286 
L 302.708571 188.085559 
L 304.492704 186.768 
L 307.491429 184.377237 
L 308.408906 183.661714 
L 312.075487 180.555429 
L 312.274286 180.373697 
L 315.603802 177.449143 
L 317.057143 176.015784 
L 318.841276 174.342857 
L 321.757922 171.236571 
L 321.84 171.140006 
L 324.57924 168.130286 
L 326.622857 165.491537 
L 327.014707 165.024 
L 329.299679 161.917714 
L 331.191074 158.811429 
L 331.405714 158.385964 
L 332.906467 155.705143 
L 334.264193 152.598857 
L 335.253666 149.492571 
L 335.870088 146.386286 
L 336.083171 143.28 
L 335.832504 140.173714 
L 335.019339 137.067429 
L 333.49329 133.961143 
L 331.405714 131.280322 
L 331.040164 130.854857 
L 327.342741 127.748571 
L 326.622857 127.281034 
L 321.84 124.738851 
L 321.612807 124.642286 
L 317.057143 122.969359 
L 312.274286 121.717731 
L 311.340891 121.536 
L 307.491429 120.820477 
L 302.708571 120.218441 
L 297.925714 119.862731 
L 293.142857 119.712154 
L 288.36 119.737511 
L 283.577143 119.91906 
L 278.794286 120.244793 
L 274.011429 120.709326 
L 269.228571 121.313278 
L 267.788427 121.536 
L 264.445714 121.986349 
L 259.662857 122.749835 
L 254.88 123.646458 
L 250.324336 124.642286 
L 250.097143 124.686178 
L 245.314286 125.710291 
L 240.531429 126.886927 
L 237.424859 127.748571 
L 235.748571 128.165503 
L 230.965714 129.472967 
L 226.548407 130.854857 
L 226.182857 130.95875 
L 221.4 132.410306 
L 216.941644 133.961143 
L 216.617143 134.065036 
L 211.834286 135.685539 
L 208.220661 137.067429 
L 207.051429 137.484361 
L 202.268571 139.312069 
L 200.199921 140.173714 
L 197.485714 141.241719 
L 192.808258 143.28 
L 192.702857 143.323893 
L 187.92 145.390458 
L 185.802758 146.386286 
L 183.137143 147.60012 
L 179.289191 149.492571 
L 178.354286 149.942921 
L 173.571429 152.376135 
L 173.148716 152.598857 
L 168.788571 154.878469 
L 167.287819 155.705143 
L 164.005714 157.520221 
L 161.765961 158.811429 
L 159.222857 160.300774 
L 156.546035 161.917714 
L 154.44 163.225511 
L 151.602097 165.024 
L 149.657143 166.30644 
L 146.917903 168.130286 
L 144.874286 169.563303 
L 142.485999 171.236571 
L 140.091429 173.025298 
L 138.307296 174.342857 
L 135.308571 176.73362 
L 134.391094 177.449143 
L 130.724513 180.555429 
L 130.525714 180.73716 
L 127.196198 183.661714 
L 125.742857 185.095074 
L 123.958724 186.768 
L 121.042078 189.874286 
L 120.96 189.970851 
L 118.22076 192.980571 
L 116.177143 195.61932 
L 115.785293 196.086857 
L 113.500321 199.193143 
L 111.608926 202.299429 
L 111.394286 202.724893 
L 109.893533 205.405714 
L 108.535807 208.512 
L 107.546334 211.618286 
L 106.929912 214.724571 
L 106.716829 217.830857 
L 106.967496 220.937143 
L 107.780661 224.043429 
L 109.30671 227.149714 
L 111.394286 229.830535 
L 111.759836 230.256 
L 115.457259 233.362286 
L 116.177143 233.829823 
L 120.96 236.372006 
L 121.187193 236.468571 
L 125.742857 238.141498 
L 130.525714 239.393126 
L 131.459109 239.574857 
z
M 148.953515 227.149714 
L 144.874286 226.027891 
L 140.091429 224.084463 
L 140.011024 224.043429 
L 135.389481 220.937143 
L 135.308571 220.858544 
L 132.675377 217.830857 
L 131.143182 214.724571 
L 130.525714 211.855145 
L 130.477595 211.618286 
L 130.480252 208.512 
L 130.525714 208.275141 
L 131.026024 205.405714 
L 132.036589 202.299429 
L 133.480262 199.193143 
L 135.308571 196.165456 
L 135.352746 196.086857 
L 137.490162 192.980571 
L 140.052933 189.874286 
L 140.091429 189.833251 
L 142.834322 186.768 
L 144.874286 184.783538 
L 145.986102 183.661714 
L 149.452776 180.555429 
L 149.657143 180.387011 
L 153.155503 177.449143 
L 154.44 176.463932 
L 157.182894 174.342857 
L 159.222857 172.881942 
L 161.52618 171.236571 
L 164.005714 169.57393 
L 166.187305 168.130286 
L 168.788571 166.493026 
L 171.179086 165.024 
L 173.571429 163.607501 
L 176.525977 161.917714 
L 178.354286 160.897355 
L 182.265485 158.811429 
L 183.137143 158.352106 
L 187.92 155.946102 
L 188.420309 155.705143 
L 192.702857 153.640504 
L 195.022488 152.598857 
L 197.485714 151.477906 
L 202.220452 149.492571 
L 202.268571 149.471874 
L 207.051429 147.506453 
L 210.053362 146.386286 
L 211.834286 145.695666 
L 216.617143 143.98419 
L 218.766806 143.28 
L 221.4 142.371825 
L 226.182857 140.877905 
L 228.674645 140.173714 
L 230.965714 139.483095 
L 235.748571 138.187596 
L 240.451024 137.067429 
L 240.531429 137.046731 
L 245.314286 135.946477 
L 250.097143 135.00279 
L 254.88 134.202102 
L 256.62658 133.961143 
L 259.662857 133.501821 
L 264.445714 132.940784 
L 269.228571 132.544644 
L 274.011429 132.323883 
L 278.794286 132.298501 
L 283.577143 132.500228 
L 288.36 132.975932 
L 293.142857 133.792725 
L 293.846485 133.961143 
L 297.925714 135.082966 
L 302.708571 137.026394 
L 302.788976 137.067429 
L 307.410519 140.173714 
L 307.491429 140.252313 
L 310.124623 143.28 
L 311.656818 146.386286 
L 312.274286 149.255712 
L 312.322405 149.492571 
L 312.319748 152.598857 
L 312.274286 152.835716 
L 311.773976 155.705143 
L 310.763411 158.811429 
L 309.319738 161.917714 
L 307.491429 164.945401 
L 307.447254 165.024 
L 305.309838 168.130286 
L 302.747067 171.236571 
L 302.708571 171.277606 
L 299.965678 174.342857 
L 297.925714 176.327319 
L 296.813898 177.449143 
L 293.347224 180.555429 
L 293.142857 180.723846 
L 289.644497 183.661714 
L 288.36 184.646925 
L 285.617106 186.768 
L 283.577143 188.228915 
L 281.27382 189.874286 
L 278.794286 191.536928 
L 276.612695 192.980571 
L 274.011429 194.617831 
L 271.620914 196.086857 
L 269.228571 197.503356 
L 266.274023 199.193143 
L 264.445714 200.213502 
L 260.534515 202.299429 
L 259.662857 202.758751 
L 254.88 205.164755 
L 254.379691 205.405714 
L 250.097143 207.470353 
L 247.777512 208.512 
L 245.314286 209.632951 
L 240.579548 211.618286 
L 240.531429 211.638983 
L 235.748571 213.604404 
L 232.746638 214.724571 
L 230.965714 215.415191 
L 226.182857 217.126667 
L 224.033194 217.830857 
L 221.4 218.739032 
L 216.617143 220.232952 
L 214.125355 220.937143 
L 211.834286 221.627763 
L 207.051429 222.923262 
L 202.348976 224.043429 
L 202.268571 224.064126 
L 197.485714 225.16438 
L 192.702857 226.108067 
L 187.92 226.908755 
L 186.17342 227.149714 
L 183.137143 227.609036 
L 178.354286 228.170073 
L 173.571429 228.566213 
L 168.788571 228.786974 
L 164.005714 228.812356 
L 159.222857 228.610629 
L 154.44 228.134925 
L 149.657143 227.318132 
z
" style="fill:#fdd7af;fill-opacity:0.97;"/>
   </g>
   <g id="PathCollection_3">
    <path clip-path="url(#pe73ec6859a)" d="M 149.657143 227.318132 
L 154.44 228.134925 
L 159.222857 228.610629 
L 164.005714 228.812356 
L 168.788571 228.786974 
L 173.571429 228.566213 
L 178.354286 228.170073 
L 183.137143 227.609036 
L 186.17342 227.149714 
L 187.92 226.908755 
L 192.702857 226.108067 
L 197.485714 225.16438 
L 202.268571 224.064126 
L 202.348976 224.043429 
L 207.051429 222.923262 
L 211.834286 221.627763 
L 214.125355 220.937143 
L 216.617143 220.232952 
L 221.4 218.739032 
L 224.033194 217.830857 
L 226.182857 217.126667 
L 230.965714 215.415191 
L 232.746638 214.724571 
L 235.748571 213.604404 
L 240.531429 211.638983 
L 240.579548 211.618286 
L 245.314286 209.632951 
L 247.777512 208.512 
L 250.097143 207.470353 
L 254.379691 205.405714 
L 254.88 205.164755 
L 259.662857 202.758751 
L 260.534515 202.299429 
L 264.445714 200.213502 
L 266.274023 199.193143 
L 269.228571 197.503356 
L 271.620914 196.086857 
L 274.011429 194.617831 
L 276.612695 192.980571 
L 278.794286 191.536928 
L 281.27382 189.874286 
L 283.577143 188.228915 
L 285.617106 186.768 
L 288.36 184.646925 
L 289.644497 183.661714 
L 293.142857 180.723846 
L 293.347224 180.555429 
L 296.813898 177.449143 
L 297.925714 176.327319 
L 299.965678 174.342857 
L 302.708571 171.277606 
L 302.747067 171.236571 
L 305.309838 168.130286 
L 307.447254 165.024 
L 307.491429 164.945401 
L 309.319738 161.917714 
L 310.763411 158.811429 
L 311.773976 155.705143 
L 312.274286 152.835716 
L 312.319748 152.598857 
L 312.322405 149.492571 
L 312.274286 149.255712 
L 311.656818 146.386286 
L 310.124623 143.28 
L 307.491429 140.252313 
L 307.410519 140.173714 
L 302.788976 137.067429 
L 302.708571 137.026394 
L 297.925714 135.082966 
L 293.846485 133.961143 
L 293.142857 133.792725 
L 288.36 132.975932 
L 283.577143 132.500228 
L 278.794286 132.298501 
L 274.011429 132.323883 
L 269.228571 132.544644 
L 264.445714 132.940784 
L 259.662857 133.501821 
L 256.62658 133.961143 
L 254.88 134.202102 
L 250.097143 135.00279 
L 245.314286 135.946477 
L 240.531429 137.046731 
L 240.451024 137.067429 
L 235.748571 138.187596 
L 230.965714 139.483095 
L 228.674645 140.173714 
L 226.182857 140.877905 
L 221.4 142.371825 
L 218.766806 143.28 
L 216.617143 143.98419 
L 211.834286 145.695666 
L 210.053362 146.386286 
L 207.051429 147.506453 
L 202.268571 149.471874 
L 202.220452 149.492571 
L 197.485714 151.477906 
L 195.022488 152.598857 
L 192.702857 153.640504 
L 188.420309 155.705143 
L 187.92 155.946102 
L 183.137143 158.352106 
L 182.265485 158.811429 
L 178.354286 160.897355 
L 176.525977 161.917714 
L 173.571429 163.607501 
L 171.179086 165.024 
L 168.788571 166.493026 
L 166.187305 168.130286 
L 164.005714 169.57393 
L 161.52618 171.236571 
L 159.222857 172.881942 
L 157.182894 174.342857 
L 154.44 176.463932 
L 153.155503 177.449143 
L 149.657143 180.387011 
L 149.452776 180.555429 
L 145.986102 183.661714 
L 144.874286 184.783538 
L 142.834322 186.768 
L 140.091429 189.833251 
L 140.052933 189.874286 
L 137.490162 192.980571 
L 135.352746 196.086857 
L 135.308571 196.165456 
L 133.480262 199.193143 
L 132.036589 202.299429 
L 131.026024 205.405714 
L 130.525714 208.275141 
L 130.480252 208.512 
L 130.477595 211.618286 
L 130.525714 211.855145 
L 131.143182 214.724571 
L 132.675377 217.830857 
L 135.308571 220.858544 
L 135.389481 220.937143 
L 140.011024 224.043429 
L 140.091429 224.084463 
L 144.874286 226.027891 
L 148.953515 227.149714 
z
M 160.994114 217.830857 
L 159.222857 217.305193 
L 154.44 215.169834 
L 153.701471 214.724571 
L 150.19364 211.618286 
L 149.657143 210.788007 
L 148.419469 208.512 
L 147.743525 205.405714 
L 147.876723 202.299429 
L 148.661224 199.193143 
L 149.657143 196.917136 
L 149.999629 196.086857 
L 151.794959 192.980571 
L 154.051434 189.874286 
L 154.44 189.429023 
L 156.681551 186.768 
L 159.222857 184.187378 
L 159.727988 183.661714 
L 163.122573 180.555429 
L 164.005714 179.830343 
L 166.885416 177.449143 
L 168.788571 176.019937 
L 171.030123 174.342857 
L 173.571429 172.589068 
L 175.56001 171.236571 
L 178.354286 169.457335 
L 180.492102 168.130286 
L 183.137143 166.570942 
L 185.858222 165.024 
L 187.92 163.895258 
L 191.706939 161.917714 
L 192.702857 161.410086 
L 197.485714 159.094318 
L 198.100955 158.811429 
L 202.268571 156.916476 
L 205.137811 155.705143 
L 207.051429 154.895641 
L 211.834286 153.02013 
L 212.990949 152.598857 
L 216.617143 151.258169 
L 221.4 149.657275 
L 221.936497 149.492571 
L 226.182857 148.151883 
L 230.965714 146.807559 
L 232.647292 146.386286 
L 235.748571 145.576784 
L 240.531429 144.491334 
L 245.314286 143.562889 
L 247.085543 143.28 
L 250.097143 142.772372 
L 254.88 142.151258 
L 259.662857 141.720656 
L 264.445714 141.500763 
L 269.228571 141.526211 
L 274.011429 141.850794 
L 278.794286 142.554914 
L 281.805886 143.28 
L 283.577143 143.805664 
L 288.36 145.941023 
L 289.098529 146.386286 
L 292.60636 149.492571 
L 293.142857 150.322851 
L 294.380531 152.598857 
L 295.056475 155.705143 
L 294.923277 158.811429 
L 294.138776 161.917714 
L 293.142857 164.193721 
L 292.800371 165.024 
L 291.005041 168.130286 
L 288.748566 171.236571 
L 288.36 171.681834 
L 286.118449 174.342857 
L 283.577143 176.923479 
L 283.072012 177.449143 
L 279.677427 180.555429 
L 278.794286 181.280514 
L 275.914584 183.661714 
L 274.011429 185.09092 
L 271.769877 186.768 
L 269.228571 188.521789 
L 267.23999 189.874286 
L 264.445714 191.653523 
L 262.307898 192.980571 
L 259.662857 194.539916 
L 256.941778 196.086857 
L 254.88 197.215599 
L 251.093061 199.193143 
L 250.097143 199.700771 
L 245.314286 202.016539 
L 244.699045 202.299429 
L 240.531429 204.194381 
L 237.662189 205.405714 
L 235.748571 206.215216 
L 230.965714 208.090727 
L 229.809051 208.512 
L 226.182857 209.852688 
L 221.4 211.453582 
L 220.863503 211.618286 
L 216.617143 212.958974 
L 211.834286 214.303299 
L 210.152708 214.724571 
L 207.051429 215.534073 
L 202.268571 216.619524 
L 197.485714 217.547968 
L 195.714457 217.830857 
L 192.702857 218.338485 
L 187.92 218.959599 
L 183.137143 219.390201 
L 178.354286 219.610094 
L 173.571429 219.584646 
L 168.788571 219.260063 
L 164.005714 218.555943 
z
" style="fill:#fdb373;fill-opacity:0.97;"/>
   </g>
   <g id="PathCollection_4">
    <path clip-path="url(#pe73ec6859a)" d="M 164.005714 218.555943 
L 168.788571 219.260063 
L 173.571429 219.584646 
L 178.354286 219.610094 
L 183.137143 219.390201 
L 187.92 218.959599 
L 192.702857 218.338485 
L 195.714457 217.830857 
L 197.485714 217.547968 
L 202.268571 216.619524 
L 207.051429 215.534073 
L 210.152708 214.724571 
L 211.834286 214.303299 
L 216.617143 212.958974 
L 220.863503 211.618286 
L 221.4 211.453582 
L 226.182857 209.852688 
L 229.809051 208.512 
L 230.965714 208.090727 
L 235.748571 206.215216 
L 237.662189 205.405714 
L 240.531429 204.194381 
L 244.699045 202.299429 
L 245.314286 202.016539 
L 250.097143 199.700771 
L 251.093061 199.193143 
L 254.88 197.215599 
L 256.941778 196.086857 
L 259.662857 194.539916 
L 262.307898 192.980571 
L 264.445714 191.653523 
L 267.23999 189.874286 
L 269.228571 188.521789 
L 271.769877 186.768 
L 274.011429 185.09092 
L 275.914584 183.661714 
L 278.794286 181.280514 
L 279.677427 180.555429 
L 283.072012 177.449143 
L 283.577143 176.923479 
L 286.118449 174.342857 
L 288.36 171.681834 
L 288.748566 171.236571 
L 291.005041 168.130286 
L 292.800371 165.024 
L 293.142857 164.193721 
L 294.138776 161.917714 
L 294.923277 158.811429 
L 295.056475 155.705143 
L 294.380531 152.598857 
L 293.142857 150.322851 
L 292.60636 149.492571 
L 289.098529 146.386286 
L 288.36 145.941023 
L 283.577143 143.805664 
L 281.805886 143.28 
L 278.794286 142.554914 
L 274.011429 141.850794 
L 269.228571 141.526211 
L 264.445714 141.500763 
L 259.662857 141.720656 
L 254.88 142.151258 
L 250.097143 142.772372 
L 247.085543 143.28 
L 245.314286 143.562889 
L 240.531429 144.491334 
L 235.748571 145.576784 
L 232.647292 146.386286 
L 230.965714 146.807559 
L 226.182857 148.151883 
L 221.936497 149.492571 
L 221.4 149.657275 
L 216.617143 151.258169 
L 212.990949 152.598857 
L 211.834286 153.02013 
L 207.051429 154.895641 
L 205.137811 155.705143 
L 202.268571 156.916476 
L 198.100955 158.811429 
L 197.485714 159.094318 
L 192.702857 161.410086 
L 191.706939 161.917714 
L 187.92 163.895258 
L 185.858222 165.024 
L 183.137143 166.570942 
L 180.492102 168.130286 
L 178.354286 169.457335 
L 175.56001 171.236571 
L 173.571429 172.589068 
L 171.030123 174.342857 
L 168.788571 176.019937 
L 166.885416 177.449143 
L 164.005714 179.830343 
L 163.122573 180.555429 
L 159.727988 183.661714 
L 159.222857 184.187378 
L 156.681551 186.768 
L 154.44 189.429023 
L 154.051434 189.874286 
L 151.794959 192.980571 
L 149.999629 196.086857 
L 149.657143 196.917136 
L 148.661224 199.193143 
L 147.876723 202.299429 
L 147.743525 205.405714 
L 148.419469 208.512 
L 149.657143 210.788007 
L 150.19364 211.618286 
L 153.701471 214.724571 
L 154.44 215.169834 
L 159.222857 217.305193 
L 160.994114 217.830857 
z
M 169.325778 208.512 
L 168.788571 208.222395 
L 165.221796 205.405714 
L 164.005714 203.441913 
L 163.445496 202.299429 
L 163.034507 199.193143 
L 163.537944 196.086857 
L 164.005714 194.944373 
L 164.780244 192.980571 
L 166.626498 189.874286 
L 168.788571 187.057605 
L 169.006304 186.768 
L 171.887268 183.661714 
L 173.571429 182.105929 
L 175.24325 180.555429 
L 178.354286 178.02226 
L 179.063198 177.449143 
L 183.137143 174.497735 
L 183.354876 174.342857 
L 187.92 171.377981 
L 188.14425 171.236571 
L 192.702857 168.565932 
L 193.477387 168.130286 
L 197.485714 166.001185 
L 199.423611 165.024 
L 202.268571 163.64805 
L 206.080222 161.917714 
L 207.051429 161.488509 
L 211.834286 159.518348 
L 213.692101 158.811429 
L 216.617143 157.713711 
L 221.4 156.079712 
L 222.616081 155.705143 
L 226.182857 154.607425 
L 230.965714 153.305777 
L 233.955405 152.598857 
L 235.748571 152.169652 
L 240.531429 151.222907 
L 245.314286 150.469757 
L 250.097143 149.928218 
L 254.88 149.633981 
L 259.662857 149.647449 
L 264.445714 150.065688 
L 269.228571 151.043072 
L 273.474222 152.598857 
L 274.011429 152.888462 
L 277.578204 155.705143 
L 278.794286 157.668944 
L 279.354504 158.811429 
L 279.765493 161.917714 
L 279.262056 165.024 
L 278.794286 166.166484 
L 278.019756 168.130286 
L 276.173502 171.236571 
L 274.011429 174.053252 
L 273.793696 174.342857 
L 270.912732 177.449143 
L 269.228571 179.004928 
L 267.55675 180.555429 
L 264.445714 183.088598 
L 263.736802 183.661714 
L 259.662857 186.613123 
L 259.445124 186.768 
L 254.88 189.732877 
L 254.65575 189.874286 
L 250.097143 192.544925 
L 249.322613 192.980571 
L 245.314286 195.109672 
L 243.376389 196.086857 
L 240.531429 197.462807 
L 236.719778 199.193143 
L 235.748571 199.622348 
L 230.965714 201.592509 
L 229.107899 202.299429 
L 226.182857 203.397146 
L 221.4 205.031146 
L 220.183919 205.405714 
L 216.617143 206.503432 
L 211.834286 207.805081 
L 208.844595 208.512 
L 207.051429 208.941205 
L 202.268571 209.88795 
L 197.485714 210.6411 
L 192.702857 211.182639 
L 187.92 211.476877 
L 183.137143 211.463408 
L 178.354286 211.045169 
L 173.571429 210.067785 
z
" style="fill:#fd8c3b;fill-opacity:0.97;"/>
   </g>
   <g id="PathCollection_5">
    <path clip-path="url(#pe73ec6859a)" d="M 173.571429 210.067785 
L 178.354286 211.045169 
L 183.137143 211.463408 
L 187.92 211.476877 
L 192.702857 211.182639 
L 197.485714 210.6411 
L 202.268571 209.88795 
L 207.051429 208.941205 
L 208.844595 208.512 
L 211.834286 207.805081 
L 216.617143 206.503432 
L 220.183919 205.405714 
L 221.4 205.031146 
L 226.182857 203.397146 
L 229.107899 202.299429 
L 230.965714 201.592509 
L 235.748571 199.622348 
L 236.719778 199.193143 
L 240.531429 197.462807 
L 243.376389 196.086857 
L 245.314286 195.109672 
L 249.322613 192.980571 
L 250.097143 192.544925 
L 254.65575 189.874286 
L 254.88 189.732877 
L 259.445124 186.768 
L 259.662857 186.613123 
L 263.736802 183.661714 
L 264.445714 183.088598 
L 267.55675 180.555429 
L 269.228571 179.004928 
L 270.912732 177.449143 
L 273.793696 174.342857 
L 274.011429 174.053252 
L 276.173502 171.236571 
L 278.019756 168.130286 
L 278.794286 166.166484 
L 279.262056 165.024 
L 279.765493 161.917714 
L 279.354504 158.811429 
L 278.794286 157.668944 
L 277.578204 155.705143 
L 274.011429 152.888462 
L 273.474222 152.598857 
L 269.228571 151.043072 
L 264.445714 150.065688 
L 259.662857 149.647449 
L 254.88 149.633981 
L 250.097143 149.928218 
L 245.314286 150.469757 
L 240.531429 151.222907 
L 235.748571 152.169652 
L 233.955405 152.598857 
L 230.965714 153.305777 
L 226.182857 154.607425 
L 222.616081 155.705143 
L 221.4 156.079712 
L 216.617143 157.713711 
L 213.692101 158.811429 
L 211.834286 159.518348 
L 207.051429 161.488509 
L 206.080222 161.917714 
L 202.268571 163.64805 
L 199.423611 165.024 
L 197.485714 166.001185 
L 193.477387 168.130286 
L 192.702857 168.565932 
L 188.14425 171.236571 
L 187.92 171.377981 
L 183.354876 174.342857 
L 183.137143 174.497735 
L 179.063198 177.449143 
L 178.354286 178.02226 
L 175.24325 180.555429 
L 173.571429 182.105929 
L 171.887268 183.661714 
L 169.006304 186.768 
L 168.788571 187.057605 
L 166.626498 189.874286 
L 164.780244 192.980571 
L 164.005714 194.944373 
L 163.537944 196.086857 
L 163.034507 199.193143 
L 163.445496 202.299429 
L 164.005714 203.441913 
L 165.221796 205.405714 
L 168.788571 208.222395 
L 169.325778 208.512 
z
M 186.52751 202.299429 
L 183.137143 200.988614 
L 180.542024 199.193143 
L 178.699037 196.086857 
L 178.650854 192.980571 
L 179.737981 189.874286 
L 181.63109 186.768 
L 183.137143 184.972529 
L 184.240884 183.661714 
L 187.490772 180.555429 
L 187.92 180.209649 
L 191.414524 177.449143 
L 192.702857 176.552749 
L 195.979661 174.342857 
L 197.485714 173.42759 
L 201.248999 171.236571 
L 202.268571 170.690599 
L 207.051429 168.270053 
L 207.347997 168.130286 
L 211.834286 166.16015 
L 214.627099 165.024 
L 216.617143 164.255381 
L 221.4 162.591373 
L 223.587738 161.917714 
L 226.182857 161.149096 
L 230.965714 159.947579 
L 235.748571 158.951196 
L 236.699145 158.811429 
L 240.531429 158.265456 
L 245.314286 157.896162 
L 250.097143 157.915034 
L 254.88 158.465649 
L 256.27249 158.811429 
L 259.662857 160.122244 
L 262.257976 161.917714 
L 264.100963 165.024 
L 264.149146 168.130286 
L 263.062019 171.236571 
L 261.16891 174.342857 
L 259.662857 176.138328 
L 258.559116 177.449143 
L 255.309228 180.555429 
L 254.88 180.901208 
L 251.385476 183.661714 
L 250.097143 184.558109 
L 246.820339 186.768 
L 245.314286 187.683267 
L 241.551001 189.874286 
L 240.531429 190.420258 
L 235.748571 192.840804 
L 235.452003 192.980571 
L 230.965714 194.950707 
L 228.172901 196.086857 
L 226.182857 196.855476 
L 221.4 198.519484 
L 219.212262 199.193143 
L 216.617143 199.961761 
L 211.834286 201.163278 
L 207.051429 202.159661 
L 206.100855 202.299429 
L 202.268571 202.845401 
L 197.485714 203.214696 
L 192.702857 203.195823 
L 187.92 202.645208 
z
" style="fill:#ee6410;fill-opacity:0.97;"/>
   </g>
   <g id="PathCollection_6">
    <path clip-path="url(#pe73ec6859a)" d="M 187.92 202.645208 
L 192.702857 203.195823 
L 197.485714 203.214696 
L 202.268571 202.845401 
L 206.100855 202.299429 
L 207.051429 202.159661 
L 211.834286 201.163278 
L 216.617143 199.961761 
L 219.212262 199.193143 
L 221.4 198.519484 
L 226.182857 196.855476 
L 228.172901 196.086857 
L 230.965714 194.950707 
L 235.452003 192.980571 
L 235.748571 192.840804 
L 240.531429 190.420258 
L 241.551001 189.874286 
L 245.314286 187.683267 
L 246.820339 186.768 
L 250.097143 184.558109 
L 251.385476 183.661714 
L 254.88 180.901208 
L 255.309228 180.555429 
L 258.559116 177.449143 
L 259.662857 176.138328 
L 261.16891 174.342857 
L 263.062019 171.236571 
L 264.149146 168.130286 
L 264.100963 165.024 
L 262.257976 161.917714 
L 259.662857 160.122244 
L 256.27249 158.811429 
L 254.88 158.465649 
L 250.097143 157.915034 
L 245.314286 157.896162 
L 240.531429 158.265456 
L 236.699145 158.811429 
L 235.748571 158.951196 
L 230.965714 159.947579 
L 226.182857 161.149096 
L 223.587738 161.917714 
L 221.4 162.591373 
L 216.617143 164.255381 
L 214.627099 165.024 
L 211.834286 166.16015 
L 207.347997 168.130286 
L 207.051429 168.270053 
L 202.268571 170.690599 
L 201.248999 171.236571 
L 197.485714 173.42759 
L 195.979661 174.342857 
L 192.702857 176.552749 
L 191.414524 177.449143 
L 187.92 180.209649 
L 187.490772 180.555429 
L 184.240884 183.661714 
L 183.137143 184.972529 
L 181.63109 186.768 
L 179.737981 189.874286 
L 178.650854 192.980571 
L 178.699037 196.086857 
L 180.542024 199.193143 
L 183.137143 200.988614 
L 186.52751 202.299429 
z
M 205.644828 192.980571 
L 202.268571 192.497725 
L 198.22917 189.874286 
L 198.041122 186.768 
L 199.826021 183.661714 
L 202.268571 181.038275 
L 202.74339 180.555429 
L 206.882696 177.449143 
L 207.051429 177.345512 
L 211.834286 174.630299 
L 212.389694 174.342857 
L 216.617143 172.498216 
L 219.825229 171.236571 
L 221.4 170.693871 
L 226.182857 169.39193 
L 230.965714 168.417727 
L 234.341971 168.130286 
L 235.748571 168.026654 
L 237.155172 168.130286 
L 240.531429 168.613132 
L 244.57083 171.236571 
L 244.758878 174.342857 
L 242.973979 177.449143 
L 240.531429 180.072582 
L 240.05661 180.555429 
L 235.917304 183.661714 
L 235.748571 183.765346 
L 230.965714 186.480558 
L 230.410306 186.768 
L 226.182857 188.612641 
L 222.974771 189.874286 
L 221.4 190.416986 
L 216.617143 191.718927 
L 211.834286 192.69313 
L 208.458029 192.980571 
L 207.051429 193.084203 
z
" style="fill:#c94202;fill-opacity:0.97;"/>
   </g>
   <g id="PathCollection_7">
    <path clip-path="url(#pe73ec6859a)" d="M 207.051429 193.084203 
L 208.458029 192.980571 
L 211.834286 192.69313 
L 216.617143 191.718927 
L 221.4 190.416986 
L 222.974771 189.874286 
L 226.182857 188.612641 
L 230.410306 186.768 
L 230.965714 186.480558 
L 235.748571 183.765346 
L 235.917304 183.661714 
L 240.05661 180.555429 
L 240.531429 180.072582 
L 242.973979 177.449143 
L 244.758878 174.342857 
L 244.57083 171.236571 
L 240.531429 168.613132 
L 237.155172 168.130286 
L 235.748571 168.026654 
L 234.341971 168.130286 
L 230.965714 168.417727 
L 226.182857 169.39193 
L 221.4 170.693871 
L 219.825229 171.236571 
L 216.617143 172.498216 
L 212.389694 174.342857 
L 211.834286 174.630299 
L 207.051429 177.345512 
L 206.882696 177.449143 
L 202.74339 180.555429 
L 202.268571 181.038275 
L 199.826021 183.661714 
L 198.041122 186.768 
L 198.22917 189.874286 
L 202.268571 192.497725 
L 205.644828 192.980571 
z
" style="fill:#952f03;fill-opacity:0.97;"/>
   </g>
   <g id="PathCollection_8">
    <path clip-path="url(#pe73ec6859a)" d="M 58.782857 252 
L 63.565714 252 
L 68.348571 252 
L 73.131429 252 
L 77.914286 252 
L 82.697143 252 
L 87.48 252 
L 92.262857 252 
L 97.045714 252 
L 101.828571 252 
L 106.611429 252 
L 111.394286 252 
L 116.177143 252 
L 120.96 252 
L 125.742857 252 
L 130.525714 252 
L 135.308571 252 
L 140.091429 252 
L 144.874286 252 
L 149.657143 252 
L 154.44 252 
L 159.222857 252 
L 164.005714 252 
L 168.788571 252 
L 173.571429 252 
L 178.354286 252 
L 183.137143 252 
L 187.92 252 
L 192.702857 252 
L 197.485714 252 
L 202.268571 252 
L 207.051429 252 
L 211.834286 252 
L 216.617143 252 
L 221.4 252 
L 226.182857 252 
L 230.965714 252 
L 235.748571 252 
L 240.531429 252 
L 245.314286 252 
L 250.097143 252 
L 254.88 252 
L 259.662857 252 
L 264.445714 252 
L 269.228571 252 
L 274.011429 252 
L 278.794286 252 
L 283.577143 252 
L 288.36 252 
L 293.142857 252 
L 297.925714 252 
L 302.708571 252 
L 307.491429 252 
L 312.274286 252 
L 317.057143 252 
L 321.84 252 
L 326.622857 252 
L 331.405714 252 
L 336.188571 252 
L 340.971429 252 
L 345.754286 252 
L 350.537143 252 
L 355.32 252 
L 360.102857 252 
L 364.885714 252 
L 369.668571 252 
L 374.451429 252 
L 379.234286 252 
L 384.017143 252 
L 388.8 252 
L 388.8 248.893714 
L 388.8 245.787429 
L 388.8 242.681143 
L 388.8 239.574857 
L 388.8 236.468571 
L 388.8 233.362286 
L 388.8 230.256 
L 388.8 227.149714 
L 388.8 224.043429 
L 388.8 220.937143 
L 388.8 217.830857 
L 388.8 214.724571 
L 388.8 211.618286 
L 388.8 208.512 
L 388.8 205.405714 
L 388.8 202.299429 
L 388.8 199.193143 
L 388.8 196.086857 
L 388.8 192.980571 
L 388.8 189.874286 
L 388.8 186.768 
L 388.8 183.661714 
L 388.8 180.555429 
L 388.8 177.449143 
L 388.8 174.342857 
L 388.8 171.236571 
L 388.8 168.130286 
L 388.8 165.024 
L 388.8 161.917714 
L 388.8 158.811429 
L 388.8 155.705143 
L 388.8 152.598857 
L 388.8 149.492571 
L 388.8 146.386286 
L 388.8 143.28 
L 388.8 140.173714 
L 388.8 137.067429 
L 388.8 133.961143 
L 388.8 130.854857 
L 388.8 127.748571 
L 388.8 124.642286 
L 388.8 121.536 
L 388.8 118.429714 
L 388.8 115.323429 
L 388.8 112.217143 
L 388.8 109.110857 
L 388.8 106.004571 
L 388.8 102.898286 
L 388.8 99.792 
L 388.8 96.685714 
L 388.8 93.579429 
L 388.8 90.473143 
L 388.8 87.366857 
L 388.8 84.260571 
L 388.8 81.154286 
L 388.8 78.048 
L 388.8 74.941714 
L 388.8 71.835429 
L 388.8 68.729143 
L 388.8 65.622857 
L 388.8 62.516571 
L 388.8 59.410286 
L 388.8 56.304 
L 388.8 53.197714 
L 388.8 50.091429 
L 388.8 46.985143 
L 388.8 43.878857 
L 388.8 40.772571 
L 388.8 37.666286 
L 388.8 34.56 
L 384.017143 34.56 
L 379.234286 34.56 
L 374.451429 34.56 
L 369.668571 34.56 
L 364.885714 34.56 
L 360.102857 34.56 
L 355.32 34.56 
L 350.537143 34.56 
L 345.754286 34.56 
L 340.971429 34.56 
L 336.188571 34.56 
L 331.405714 34.56 
L 326.622857 34.56 
L 321.84 34.56 
L 317.057143 34.56 
L 312.274286 34.56 
L 307.491429 34.56 
L 302.708571 34.56 
L 297.925714 34.56 
L 293.142857 34.56 
L 288.36 34.56 
L 283.577143 34.56 
L 278.794286 34.56 
L 274.011429 34.56 
L 269.228571 34.56 
L 264.445714 34.56 
L 259.662857 34.56 
L 254.88 34.56 
L 250.097143 34.56 
L 245.314286 34.56 
L 240.531429 34.56 
L 235.748571 34.56 
L 230.965714 34.56 
L 226.182857 34.56 
L 221.4 34.56 
L 216.617143 34.56 
L 211.834286 34.56 
L 207.051429 34.56 
L 202.268571 34.56 
L 197.485714 34.56 
L 192.702857 34.56 
L 187.92 34.56 
L 183.137143 34.56 
L 178.354286 34.56 
L 177.589972 34.56 
L 178.354286 34.642451 
L 183.137143 35.371675 
L 187.92 36.316145 
L 192.702857 37.494824 
L 193.296328 37.666286 
L 197.485714 38.766367 
L 202.268571 40.263684 
L 203.696635 40.772571 
L 207.051429 41.878634 
L 211.834286 43.713287 
L 212.228552 43.878857 
L 216.617143 45.614637 
L 219.66532 46.985143 
L 221.4 47.727611 
L 226.182857 50.014928 
L 226.333053 50.091429 
L 230.965714 52.378036 
L 232.485522 53.197714 
L 235.748571 54.921463 
L 238.174277 56.304 
L 240.531429 57.634036 
L 243.485767 59.410286 
L 245.314286 60.510367 
L 248.482611 62.516571 
L 250.097143 63.550572 
L 253.209132 65.622857 
L 254.88 66.760308 
L 257.69519 68.729143 
L 259.662857 70.151096 
L 261.958785 71.835429 
L 264.445714 73.740986 
L 266.007713 74.941714 
L 269.228571 77.555589 
L 269.840498 78.048 
L 273.530031 81.154286 
L 274.011429 81.57925 
L 277.116276 84.260571 
L 278.794286 85.829657 
L 280.494357 87.366857 
L 283.577143 90.417815 
L 283.635629 90.473143 
L 286.807566 93.579429 
L 288.36 95.264716 
L 289.747986 96.685714 
L 292.522716 99.792 
L 293.142857 100.535795 
L 295.259785 102.898286 
L 297.722105 106.004571 
L 297.925714 106.276722 
L 300.235398 109.110857 
L 302.445131 112.217143 
L 302.708571 112.613701 
L 304.695998 115.323429 
L 306.693515 118.429714 
L 307.491429 119.800168 
L 308.622355 121.536 
L 310.431536 124.642286 
L 312.004748 127.748571 
L 312.274286 128.338333 
L 313.581295 130.854857 
L 314.979609 133.961143 
L 316.176048 137.067429 
L 317.057143 139.755547 
L 317.215318 140.173714 
L 318.203834 143.28 
L 318.991804 146.386286 
L 319.586139 149.492571 
L 319.986715 152.598857 
L 320.186146 155.705143 
L 320.169132 158.811429 
L 319.911319 161.917714 
L 319.377566 165.024 
L 318.519445 168.130286 
L 317.271741 171.236571 
L 317.057143 171.654739 
L 315.633203 174.342857 
L 313.408962 177.449143 
L 312.274286 178.718488 
L 310.43366 180.555429 
L 307.491429 182.912025 
L 306.366899 183.661714 
L 302.708571 185.754822 
L 300.391773 186.768 
L 297.925714 187.749636 
L 293.142857 189.13049 
L 289.188332 189.874286 
L 288.36 190.027943 
L 283.577143 190.573351 
L 278.794286 190.783554 
L 274.011429 190.705234 
L 269.228571 190.366697 
L 265.210028 189.874286 
L 264.445714 189.791835 
L 259.662857 189.062611 
L 254.88 188.118141 
L 250.097143 186.939462 
L 249.503672 186.768 
L 245.314286 185.667919 
L 240.531429 184.170601 
L 239.103365 183.661714 
L 235.748571 182.555652 
L 230.965714 180.720998 
L 230.571448 180.555429 
L 226.182857 178.819648 
L 223.13468 177.449143 
L 221.4 176.706675 
L 216.617143 174.419357 
L 216.466947 174.342857 
L 211.834286 172.056249 
L 210.314478 171.236571 
L 207.051429 169.512823 
L 204.625723 168.130286 
L 202.268571 166.800249 
L 199.314233 165.024 
L 197.485714 163.923919 
L 194.317389 161.917714 
L 192.702857 160.883713 
L 189.590868 158.811429 
L 187.92 157.673978 
L 185.10481 155.705143 
L 183.137143 154.283189 
L 180.841215 152.598857 
L 178.354286 150.6933 
L 176.792287 149.492571 
L 173.571429 146.878697 
L 172.959502 146.386286 
L 169.269969 143.28 
L 168.788571 142.855036 
L 165.683724 140.173714 
L 164.005714 138.604629 
L 162.305643 137.067429 
L 159.222857 134.01647 
L 159.164371 133.961143 
L 155.992434 130.854857 
L 154.44 129.169569 
L 153.052014 127.748571 
L 150.277284 124.642286 
L 149.657143 123.89849 
L 147.540215 121.536 
L 145.077895 118.429714 
L 144.874286 118.157564 
L 142.564602 115.323429 
L 140.354869 112.217143 
L 140.091429 111.820584 
L 138.104002 109.110857 
L 136.106485 106.004571 
L 135.308571 104.634117 
L 134.177645 102.898286 
L 132.368464 99.792 
L 130.795252 96.685714 
L 130.525714 96.095953 
L 129.218705 93.579429 
L 127.820391 90.473143 
L 126.623952 87.366857 
L 125.742857 84.678739 
L 125.584682 84.260571 
L 124.596166 81.154286 
L 123.808196 78.048 
L 123.213861 74.941714 
L 122.813285 71.835429 
L 122.613854 68.729143 
L 122.630868 65.622857 
L 122.888681 62.516571 
L 123.422434 59.410286 
L 124.280555 56.304 
L 125.528259 53.197714 
L 125.742857 52.779547 
L 127.166797 50.091429 
L 129.391038 46.985143 
L 130.525714 45.715797 
L 132.36634 43.878857 
L 135.308571 41.52226 
L 136.433101 40.772571 
L 140.091429 38.679464 
L 142.408227 37.666286 
L 144.874286 36.68465 
L 149.657143 35.303795 
L 153.611668 34.56 
L 149.657143 34.56 
L 144.874286 34.56 
L 140.091429 34.56 
L 135.308571 34.56 
L 130.525714 34.56 
L 125.742857 34.56 
L 120.96 34.56 
L 116.177143 34.56 
L 111.394286 34.56 
L 106.611429 34.56 
L 101.828571 34.56 
L 97.045714 34.56 
L 92.262857 34.56 
L 87.48 34.56 
L 82.697143 34.56 
L 77.914286 34.56 
L 73.131429 34.56 
L 68.348571 34.56 
L 63.565714 34.56 
L 58.782857 34.56 
L 54 34.56 
L 54 37.666286 
L 54 40.772571 
L 54 43.878857 
L 54 46.985143 
L 54 50.091429 
L 54 53.197714 
L 54 56.304 
L 54 59.410286 
L 54 62.516571 
L 54 65.622857 
L 54 68.729143 
L 54 71.835429 
L 54 74.941714 
L 54 78.048 
L 54 81.154286 
L 54 84.260571 
L 54 87.366857 
L 54 90.473143 
L 54 93.579429 
L 54 96.685714 
L 54 99.792 
L 54 102.898286 
L 54 106.004571 
L 54 109.110857 
L 54 112.217143 
L 54 115.323429 
L 54 118.429714 
L 54 121.536 
L 54 124.642286 
L 54 127.748571 
L 54 130.854857 
L 54 133.961143 
L 54 137.067429 
L 54 140.173714 
L 54 143.28 
L 54 146.386286 
L 54 149.492571 
L 54 152.598857 
L 54 155.705143 
L 54 158.811429 
L 54 161.917714 
L 54 165.024 
L 54 168.130286 
L 54 171.236571 
L 54 174.342857 
L 54 177.449143 
L 54 180.555429 
L 54 183.661714 
L 54 186.768 
L 54 189.874286 
L 54 192.980571 
L 54 196.086857 
L 54 199.193143 
L 54 202.299429 
L 54 205.405714 
L 54 208.512 
L 54 211.618286 
L 54 214.724571 
L 54 217.830857 
L 54 220.937143 
L 54 224.043429 
L 54 227.149714 
L 54 230.256 
L 54 233.362286 
L 54 236.468571 
L 54 239.574857 
L 54 242.681143 
L 54 245.787429 
L 54 248.893714 
L 54 252 
z
" style="fill:#eef8ea;fill-opacity:0.97;"/>
   </g>
   <g id="PathCollection_9">
    <path clip-path="url(#pe73ec6859a)" d="M 269.228571 190.366697 
L 274.011429 190.705234 
L 278.794286 190.783554 
L 283.577143 190.573351 
L 288.36 190.027943 
L 289.188332 189.874286 
L 293.142857 189.13049 
L 297.925714 187.749636 
L 300.391773 186.768 
L 302.708571 185.754822 
L 306.366899 183.661714 
L 307.491429 182.912025 
L 310.43366 180.555429 
L 312.274286 178.718488 
L 313.408962 177.449143 
L 315.633203 174.342857 
L 317.057143 171.654739 
L 317.271741 171.236571 
L 318.519445 168.130286 
L 319.377566 165.024 
L 319.911319 161.917714 
L 320.169132 158.811429 
L 320.186146 155.705143 
L 319.986715 152.598857 
L 319.586139 149.492571 
L 318.991804 146.386286 
L 318.203834 143.28 
L 317.215318 140.173714 
L 317.057143 139.755547 
L 316.176048 137.067429 
L 314.979609 133.961143 
L 313.581295 130.854857 
L 312.274286 128.338333 
L 312.004748 127.748571 
L 310.431536 124.642286 
L 308.622355 121.536 
L 307.491429 119.800168 
L 306.693515 118.429714 
L 304.695998 115.323429 
L 302.708571 112.613701 
L 302.445131 112.217143 
L 300.235398 109.110857 
L 297.925714 106.276722 
L 297.722105 106.004571 
L 295.259785 102.898286 
L 293.142857 100.535795 
L 292.522716 99.792 
L 289.747986 96.685714 
L 288.36 95.264716 
L 286.807566 93.579429 
L 283.635629 90.473143 
L 283.577143 90.417815 
L 280.494357 87.366857 
L 278.794286 85.829657 
L 277.116276 84.260571 
L 274.011429 81.57925 
L 273.530031 81.154286 
L 269.840498 78.048 
L 269.228571 77.555589 
L 266.007713 74.941714 
L 264.445714 73.740986 
L 261.958785 71.835429 
L 259.662857 70.151096 
L 257.69519 68.729143 
L 254.88 66.760308 
L 253.209132 65.622857 
L 250.097143 63.550572 
L 248.482611 62.516571 
L 245.314286 60.510367 
L 243.485767 59.410286 
L 240.531429 57.634036 
L 238.174277 56.304 
L 235.748571 54.921463 
L 232.485522 53.197714 
L 230.965714 52.378036 
L 226.333053 50.091429 
L 226.182857 50.014928 
L 221.4 47.727611 
L 219.66532 46.985143 
L 216.617143 45.614637 
L 212.228552 43.878857 
L 211.834286 43.713287 
L 207.051429 41.878634 
L 203.696635 40.772571 
L 202.268571 40.263684 
L 197.485714 38.766367 
L 193.296328 37.666286 
L 192.702857 37.494824 
L 187.92 36.316145 
L 183.137143 35.371675 
L 178.354286 34.642451 
L 177.589972 34.56 
L 173.571429 34.56 
L 168.788571 34.56 
L 164.005714 34.56 
L 159.222857 34.56 
L 154.44 34.56 
L 153.611668 34.56 
L 149.657143 35.303795 
L 144.874286 36.68465 
L 142.408227 37.666286 
L 140.091429 38.679464 
L 136.433101 40.772571 
L 135.308571 41.52226 
L 132.36634 43.878857 
L 130.525714 45.715797 
L 129.391038 46.985143 
L 127.166797 50.091429 
L 125.742857 52.779547 
L 125.528259 53.197714 
L 124.280555 56.304 
L 123.422434 59.410286 
L 122.888681 62.516571 
L 122.630868 65.622857 
L 122.613854 68.729143 
L 122.813285 71.835429 
L 123.213861 74.941714 
L 123.808196 78.048 
L 124.596166 81.154286 
L 125.584682 84.260571 
L 125.742857 84.678739 
L 126.623952 87.366857 
L 127.820391 90.473143 
L 129.218705 93.579429 
L 130.525714 96.095953 
L 130.795252 96.685714 
L 132.368464 99.792 
L 134.177645 102.898286 
L 135.308571 104.634117 
L 136.106485 106.004571 
L 138.104002 109.110857 
L 140.091429 111.820584 
L 140.354869 112.217143 
L 142.564602 115.323429 
L 144.874286 118.157564 
L 145.077895 118.429714 
L 147.540215 121.536 
L 149.657143 123.89849 
L 150.277284 124.642286 
L 153.052014 127.748571 
L 154.44 129.169569 
L 155.992434 130.854857 
L 159.164371 133.961143 
L 159.222857 134.01647 
L 162.305643 137.067429 
L 164.005714 138.604629 
L 165.683724 140.173714 
L 168.788571 142.855036 
L 169.269969 143.28 
L 172.959502 146.386286 
L 173.571429 146.878697 
L 176.792287 149.492571 
L 178.354286 150.6933 
L 180.841215 152.598857 
L 183.137143 154.283189 
L 185.10481 155.705143 
L 187.92 157.673978 
L 189.590868 158.811429 
L 192.702857 160.883713 
L 194.317389 161.917714 
L 197.485714 163.923919 
L 199.314233 165.024 
L 202.268571 166.800249 
L 204.625723 168.130286 
L 207.051429 169.512823 
L 210.314478 171.236571 
L 211.834286 172.056249 
L 216.466947 174.342857 
L 216.617143 174.419357 
L 221.4 176.706675 
L 223.13468 177.449143 
L 226.182857 178.819648 
L 230.571448 180.555429 
L 230.965714 180.720998 
L 235.748571 182.555652 
L 239.103365 183.661714 
L 240.531429 184.170601 
L 245.314286 185.667919 
L 249.503672 186.768 
L 250.097143 186.939462 
L 254.88 188.118141 
L 259.662857 189.062611 
L 264.445714 189.791835 
L 265.210028 189.874286 
z
M 250.712582 174.342857 
L 250.097143 174.237605 
L 245.314286 173.17466 
L 240.531429 171.859613 
L 238.620052 171.236571 
L 235.748571 170.357532 
L 230.965714 168.644134 
L 229.698993 168.130286 
L 226.182857 166.766883 
L 222.244428 165.024 
L 221.4 164.662922 
L 216.617143 162.400152 
L 215.683616 161.917714 
L 211.834286 159.961267 
L 209.76028 158.811429 
L 207.051429 157.318403 
L 204.331252 155.705143 
L 202.268571 154.475765 
L 199.302782 152.598857 
L 197.485714 151.43066 
L 194.609411 149.492571 
L 192.702857 148.173305 
L 190.207094 146.386286 
L 187.92 144.686231 
L 186.068613 143.28 
L 183.137143 140.943251 
L 182.180599 140.173714 
L 178.523405 137.067429 
L 178.354286 136.918096 
L 174.990908 133.961143 
L 173.571429 132.616815 
L 171.67988 130.854857 
L 168.788571 127.921641 
L 168.613015 127.748571 
L 165.60911 124.642286 
L 164.005714 122.816524 
L 162.832701 121.536 
L 160.214324 118.429714 
L 159.222857 117.147285 
L 157.73203 115.323429 
L 155.437266 112.217143 
L 154.44 110.729553 
L 153.277061 109.110857 
L 151.2688 106.004571 
L 149.657143 103.176983 
L 149.484589 102.898286 
L 147.747711 99.792 
L 146.246593 96.685714 
L 144.956083 93.579429 
L 144.874286 93.348582 
L 143.749141 90.473143 
L 142.758697 87.366857 
L 141.987591 84.260571 
L 141.437605 81.154286 
L 141.119753 78.048 
L 141.055431 74.941714 
L 141.278318 71.835429 
L 141.837232 68.729143 
L 142.80028 65.622857 
L 144.260786 62.516571 
L 144.874286 61.536573 
L 146.359095 59.410286 
L 149.330767 56.304 
L 149.657143 56.025303 
L 153.770086 53.197714 
L 154.44 52.816468 
L 159.222857 50.754067 
L 161.51841 50.091429 
L 164.005714 49.434999 
L 168.788571 48.662918 
L 173.571429 48.329471 
L 178.354286 48.356455 
L 183.137143 48.693896 
L 187.92 49.313771 
L 192.087418 50.091429 
L 192.702857 50.196681 
L 197.485714 51.259626 
L 202.268571 52.574672 
L 204.179948 53.197714 
L 207.051429 54.076754 
L 211.834286 55.790152 
L 213.101007 56.304 
L 216.617143 57.667403 
L 220.555572 59.410286 
L 221.4 59.771363 
L 226.182857 62.034133 
L 227.116384 62.516571 
L 230.965714 64.473018 
L 233.03972 65.622857 
L 235.748571 67.115882 
L 238.468748 68.729143 
L 240.531429 69.958521 
L 243.497218 71.835429 
L 245.314286 73.003626 
L 248.190589 74.941714 
L 250.097143 76.260981 
L 252.592906 78.048 
L 254.88 79.748054 
L 256.731387 81.154286 
L 259.662857 83.491035 
L 260.619401 84.260571 
L 264.276595 87.366857 
L 264.445714 87.51619 
L 267.809092 90.473143 
L 269.228571 91.817471 
L 271.12012 93.579429 
L 274.011429 96.512644 
L 274.186985 96.685714 
L 277.19089 99.792 
L 278.794286 101.617761 
L 279.967299 102.898286 
L 282.585676 106.004571 
L 283.577143 107.287 
L 285.06797 109.110857 
L 287.362734 112.217143 
L 288.36 113.704733 
L 289.522939 115.323429 
L 291.5312 118.429714 
L 293.142857 121.257303 
L 293.315411 121.536 
L 295.052289 124.642286 
L 296.553407 127.748571 
L 297.843917 130.854857 
L 297.925714 131.085704 
L 299.050859 133.961143 
L 300.041303 137.067429 
L 300.812409 140.173714 
L 301.362395 143.28 
L 301.680247 146.386286 
L 301.744569 149.492571 
L 301.521682 152.598857 
L 300.962768 155.705143 
L 299.99972 158.811429 
L 298.539214 161.917714 
L 297.925714 162.897713 
L 296.440905 165.024 
L 293.469233 168.130286 
L 293.142857 168.408983 
L 289.029914 171.236571 
L 288.36 171.617818 
L 283.577143 173.680219 
L 281.28159 174.342857 
L 278.794286 174.999287 
L 274.011429 175.771367 
L 269.228571 176.104815 
L 264.445714 176.077831 
L 259.662857 175.74039 
L 254.88 175.120514 
z
" style="fill:#d6efd0;fill-opacity:0.97;"/>
   </g>
   <g id="PathCollection_10">
    <path clip-path="url(#pe73ec6859a)" d="M 254.88 175.120514 
L 259.662857 175.74039 
L 264.445714 176.077831 
L 269.228571 176.104815 
L 274.011429 175.771367 
L 278.794286 174.999287 
L 281.28159 174.342857 
L 283.577143 173.680219 
L 288.36 171.617818 
L 289.029914 171.236571 
L 293.142857 168.408983 
L 293.469233 168.130286 
L 296.440905 165.024 
L 297.925714 162.897713 
L 298.539214 161.917714 
L 299.99972 158.811429 
L 300.962768 155.705143 
L 301.521682 152.598857 
L 301.744569 149.492571 
L 301.680247 146.386286 
L 301.362395 143.28 
L 300.812409 140.173714 
L 300.041303 137.067429 
L 299.050859 133.961143 
L 297.925714 131.085704 
L 297.843917 130.854857 
L 296.553407 127.748571 
L 295.052289 124.642286 
L 293.315411 121.536 
L 293.142857 121.257303 
L 291.5312 118.429714 
L 289.522939 115.323429 
L 288.36 113.704733 
L 287.362734 112.217143 
L 285.06797 109.110857 
L 283.577143 107.287 
L 282.585676 106.004571 
L 279.967299 102.898286 
L 278.794286 101.617761 
L 277.19089 99.792 
L 274.186985 96.685714 
L 274.011429 96.512644 
L 271.12012 93.579429 
L 269.228571 91.817471 
L 267.809092 90.473143 
L 264.445714 87.51619 
L 264.276595 87.366857 
L 260.619401 84.260571 
L 259.662857 83.491035 
L 256.731387 81.154286 
L 254.88 79.748054 
L 252.592906 78.048 
L 250.097143 76.260981 
L 248.190589 74.941714 
L 245.314286 73.003626 
L 243.497218 71.835429 
L 240.531429 69.958521 
L 238.468748 68.729143 
L 235.748571 67.115882 
L 233.03972 65.622857 
L 230.965714 64.473018 
L 227.116384 62.516571 
L 226.182857 62.034133 
L 221.4 59.771363 
L 220.555572 59.410286 
L 216.617143 57.667403 
L 213.101007 56.304 
L 211.834286 55.790152 
L 207.051429 54.076754 
L 204.179948 53.197714 
L 202.268571 52.574672 
L 197.485714 51.259626 
L 192.702857 50.196681 
L 192.087418 50.091429 
L 187.92 49.313771 
L 183.137143 48.693896 
L 178.354286 48.356455 
L 173.571429 48.329471 
L 168.788571 48.662918 
L 164.005714 49.434999 
L 161.51841 50.091429 
L 159.222857 50.754067 
L 154.44 52.816468 
L 153.770086 53.197714 
L 149.657143 56.025303 
L 149.330767 56.304 
L 146.359095 59.410286 
L 144.874286 61.536573 
L 144.260786 62.516571 
L 142.80028 65.622857 
L 141.837232 68.729143 
L 141.278318 71.835429 
L 141.055431 74.941714 
L 141.119753 78.048 
L 141.437605 81.154286 
L 141.987591 84.260571 
L 142.758697 87.366857 
L 143.749141 90.473143 
L 144.874286 93.348582 
L 144.956083 93.579429 
L 146.246593 96.685714 
L 147.747711 99.792 
L 149.484589 102.898286 
L 149.657143 103.176983 
L 151.2688 106.004571 
L 153.277061 109.110857 
L 154.44 110.729553 
L 155.437266 112.217143 
L 157.73203 115.323429 
L 159.222857 117.147285 
L 160.214324 118.429714 
L 162.832701 121.536 
L 164.005714 122.816524 
L 165.60911 124.642286 
L 168.613015 127.748571 
L 168.788571 127.921641 
L 171.67988 130.854857 
L 173.571429 132.616815 
L 174.990908 133.961143 
L 178.354286 136.918096 
L 178.523405 137.067429 
L 182.180599 140.173714 
L 183.137143 140.943251 
L 186.068613 143.28 
L 187.92 144.686231 
L 190.207094 146.386286 
L 192.702857 148.173305 
L 194.609411 149.492571 
L 197.485714 151.43066 
L 199.302782 152.598857 
L 202.268571 154.475765 
L 204.331252 155.705143 
L 207.051429 157.318403 
L 209.76028 158.811429 
L 211.834286 159.961267 
L 215.683616 161.917714 
L 216.617143 162.400152 
L 221.4 164.662922 
L 222.244428 165.024 
L 226.182857 166.766883 
L 229.698993 168.130286 
L 230.965714 168.644134 
L 235.748571 170.357532 
L 238.620052 171.236571 
L 240.531429 171.859613 
L 245.314286 173.17466 
L 250.097143 174.237605 
L 250.712582 174.342857 
z
M 250.605126 165.024 
L 250.097143 164.969083 
L 245.314286 164.136706 
L 240.531429 163.022299 
L 236.755088 161.917714 
L 235.748571 161.637724 
L 230.965714 160.043785 
L 227.810245 158.811429 
L 226.182857 158.196335 
L 221.4 156.130146 
L 220.517028 155.705143 
L 216.617143 153.856414 
L 214.226627 152.598857 
L 211.834286 151.345776 
L 208.596384 149.492571 
L 207.051429 148.602454 
L 203.478684 146.386286 
L 202.268571 145.622346 
L 198.77269 143.28 
L 197.485714 142.392706 
L 194.41091 140.173714 
L 192.702857 138.891315 
L 190.350531 137.067429 
L 187.92 135.085094 
L 186.567858 133.961143 
L 183.137143 130.928025 
L 183.054884 130.854857 
L 179.713809 127.748571 
L 178.354286 126.384355 
L 176.60504 124.642286 
L 173.74238 121.536 
L 173.571429 121.338449 
L 171.000465 118.429714 
L 168.788571 115.64629 
L 168.523178 115.323429 
L 166.162332 112.217143 
L 164.06727 109.110857 
L 164.005714 109.010373 
L 162.073072 106.004571 
L 160.325815 102.898286 
L 159.222857 100.651329 
L 158.774054 99.792 
L 157.386413 96.685714 
L 156.239655 93.579429 
L 155.329686 90.473143 
L 154.662999 87.366857 
L 154.44 85.626217 
L 154.250908 84.260571 
L 154.139019 81.154286 
L 154.378385 78.048 
L 154.44 77.735932 
L 155.027787 74.941714 
L 156.195151 71.835429 
L 158.025769 68.729143 
L 159.222857 67.259912 
L 160.850245 65.622857 
L 164.005714 63.254407 
L 165.345708 62.516571 
L 168.788571 60.959292 
L 173.571429 59.607836 
L 174.844069 59.410286 
L 178.354286 58.911581 
L 183.137143 58.709434 
L 187.92 58.912659 
L 192.194874 59.410286 
L 192.702857 59.465202 
L 197.485714 60.29758 
L 202.268571 61.411986 
L 206.044912 62.516571 
L 207.051429 62.796562 
L 211.834286 64.390501 
L 214.989755 65.622857 
L 216.617143 66.237951 
L 221.4 68.30414 
L 222.282972 68.729143 
L 226.182857 70.577872 
L 228.573373 71.835429 
L 230.965714 73.088509 
L 234.203616 74.941714 
L 235.748571 75.831832 
L 239.321316 78.048 
L 240.531429 78.81194 
L 244.02731 81.154286 
L 245.314286 82.04158 
L 248.38909 84.260571 
L 250.097143 85.542971 
L 252.449469 87.366857 
L 254.88 89.349192 
L 256.232142 90.473143 
L 259.662857 93.506261 
L 259.745116 93.579429 
L 263.086191 96.685714 
L 264.445714 98.04993 
L 266.19496 99.792 
L 269.05762 102.898286 
L 269.228571 103.095836 
L 271.799535 106.004571 
L 274.011429 108.787996 
L 274.276822 109.110857 
L 276.637668 112.217143 
L 278.73273 115.323429 
L 278.794286 115.423913 
L 280.726928 118.429714 
L 282.474185 121.536 
L 283.577143 123.782957 
L 284.025946 124.642286 
L 285.413587 127.748571 
L 286.560345 130.854857 
L 287.470314 133.961143 
L 288.137001 137.067429 
L 288.36 138.808069 
L 288.549092 140.173714 
L 288.660981 143.28 
L 288.421615 146.386286 
L 288.36 146.698354 
L 287.772213 149.492571 
L 286.604849 152.598857 
L 284.774231 155.705143 
L 283.577143 157.174374 
L 281.949755 158.811429 
L 278.794286 161.179878 
L 277.454292 161.917714 
L 274.011429 163.474994 
L 269.228571 164.826449 
L 267.955931 165.024 
L 264.445714 165.522705 
L 259.662857 165.724851 
L 254.88 165.521627 
z
" style="fill:#b4e1ad;fill-opacity:0.97;"/>
   </g>
   <g id="PathCollection_11">
    <path clip-path="url(#pe73ec6859a)" d="M 254.88 165.521627 
L 259.662857 165.724851 
L 264.445714 165.522705 
L 267.955931 165.024 
L 269.228571 164.826449 
L 274.011429 163.474994 
L 277.454292 161.917714 
L 278.794286 161.179878 
L 281.949755 158.811429 
L 283.577143 157.174374 
L 284.774231 155.705143 
L 286.604849 152.598857 
L 287.772213 149.492571 
L 288.36 146.698354 
L 288.421615 146.386286 
L 288.660981 143.28 
L 288.549092 140.173714 
L 288.36 138.808069 
L 288.137001 137.067429 
L 287.470314 133.961143 
L 286.560345 130.854857 
L 285.413587 127.748571 
L 284.025946 124.642286 
L 283.577143 123.782957 
L 282.474185 121.536 
L 280.726928 118.429714 
L 278.794286 115.423913 
L 278.73273 115.323429 
L 276.637668 112.217143 
L 274.276822 109.110857 
L 274.011429 108.787996 
L 271.799535 106.004571 
L 269.228571 103.095836 
L 269.05762 102.898286 
L 266.19496 99.792 
L 264.445714 98.04993 
L 263.086191 96.685714 
L 259.745116 93.579429 
L 259.662857 93.506261 
L 256.232142 90.473143 
L 254.88 89.349192 
L 252.449469 87.366857 
L 250.097143 85.542971 
L 248.38909 84.260571 
L 245.314286 82.04158 
L 244.02731 81.154286 
L 240.531429 78.81194 
L 239.321316 78.048 
L 235.748571 75.831832 
L 234.203616 74.941714 
L 230.965714 73.088509 
L 228.573373 71.835429 
L 226.182857 70.577872 
L 222.282972 68.729143 
L 221.4 68.30414 
L 216.617143 66.237951 
L 214.989755 65.622857 
L 211.834286 64.390501 
L 207.051429 62.796562 
L 206.044912 62.516571 
L 202.268571 61.411986 
L 197.485714 60.29758 
L 192.702857 59.465202 
L 192.194874 59.410286 
L 187.92 58.912659 
L 183.137143 58.709434 
L 178.354286 58.911581 
L 174.844069 59.410286 
L 173.571429 59.607836 
L 168.788571 60.959292 
L 165.345708 62.516571 
L 164.005714 63.254407 
L 160.850245 65.622857 
L 159.222857 67.259912 
L 158.025769 68.729143 
L 156.195151 71.835429 
L 155.027787 74.941714 
L 154.44 77.735932 
L 154.378385 78.048 
L 154.139019 81.154286 
L 154.250908 84.260571 
L 154.44 85.626217 
L 154.662999 87.366857 
L 155.329686 90.473143 
L 156.239655 93.579429 
L 157.386413 96.685714 
L 158.774054 99.792 
L 159.222857 100.651329 
L 160.325815 102.898286 
L 162.073072 106.004571 
L 164.005714 109.010373 
L 164.06727 109.110857 
L 166.162332 112.217143 
L 168.523178 115.323429 
L 168.788571 115.64629 
L 171.000465 118.429714 
L 173.571429 121.338449 
L 173.74238 121.536 
L 176.60504 124.642286 
L 178.354286 126.384355 
L 179.713809 127.748571 
L 183.054884 130.854857 
L 183.137143 130.928025 
L 186.567858 133.961143 
L 187.92 135.085094 
L 190.350531 137.067429 
L 192.702857 138.891315 
L 194.41091 140.173714 
L 197.485714 142.392706 
L 198.77269 143.28 
L 202.268571 145.622346 
L 203.478684 146.386286 
L 207.051429 148.602454 
L 208.596384 149.492571 
L 211.834286 151.345776 
L 214.226627 152.598857 
L 216.617143 153.856414 
L 220.517028 155.705143 
L 221.4 156.130146 
L 226.182857 158.196335 
L 227.810245 158.811429 
L 230.965714 160.043785 
L 235.748571 161.637724 
L 236.755088 161.917714 
L 240.531429 163.022299 
L 245.314286 164.136706 
L 250.097143 164.969083 
L 250.605126 165.024 
z
M 242.298299 155.705143 
L 240.531429 155.389874 
L 235.748571 154.197668 
L 230.965714 152.69733 
L 230.704401 152.598857 
L 226.182857 150.934445 
L 222.82437 149.492571 
L 221.4 148.888543 
L 216.617143 146.577906 
L 216.259167 146.386286 
L 211.834286 144.006 
L 210.603491 143.28 
L 207.051429 141.1509 
L 205.540661 140.173714 
L 202.268571 137.998966 
L 200.949743 137.067429 
L 197.485714 134.524973 
L 196.752177 133.961143 
L 192.897687 130.854857 
L 192.702857 130.69027 
L 189.331475 127.748571 
L 187.92 126.432073 
L 186.035758 124.642286 
L 183.137143 121.66511 
L 183.012006 121.536 
L 180.199479 118.429714 
L 178.354286 116.187801 
L 177.636293 115.323429 
L 175.287187 112.217143 
L 173.571429 109.680828 
L 173.176921 109.110857 
L 171.269281 106.004571 
L 169.614345 102.898286 
L 168.788571 101.073892 
L 168.186618 99.792 
L 167.007298 96.685714 
L 166.108123 93.579429 
L 165.507719 90.473143 
L 165.241871 87.366857 
L 165.368083 84.260571 
L 165.972649 81.154286 
L 167.181511 78.048 
L 168.788571 75.49506 
L 169.221616 74.941714 
L 172.713013 71.835429 
L 173.571429 71.265458 
L 178.354286 69.100444 
L 179.778394 68.729143 
L 183.137143 67.98552 
L 187.92 67.559381 
L 192.702857 67.65061 
L 197.485714 68.165313 
L 200.501701 68.729143 
L 202.268571 69.044412 
L 207.051429 70.236618 
L 211.834286 71.736956 
L 212.095599 71.835429 
L 216.617143 73.499841 
L 219.97563 74.941714 
L 221.4 75.545743 
L 226.182857 77.856379 
L 226.540833 78.048 
L 230.965714 80.428286 
L 232.196509 81.154286 
L 235.748571 83.283386 
L 237.259339 84.260571 
L 240.531429 86.43532 
L 241.850257 87.366857 
L 245.314286 89.909313 
L 246.047823 90.473143 
L 249.902313 93.579429 
L 250.097143 93.744016 
L 253.468525 96.685714 
L 254.88 98.002213 
L 256.764242 99.792 
L 259.662857 102.769176 
L 259.787994 102.898286 
L 262.600521 106.004571 
L 264.445714 108.246484 
L 265.163707 109.110857 
L 267.512813 112.217143 
L 269.228571 114.753458 
L 269.623079 115.323429 
L 271.530719 118.429714 
L 273.185655 121.536 
L 274.011429 123.360393 
L 274.613382 124.642286 
L 275.792702 127.748571 
L 276.691877 130.854857 
L 277.292281 133.961143 
L 277.558129 137.067429 
L 277.431917 140.173714 
L 276.827351 143.28 
L 275.618489 146.386286 
L 274.011429 148.939225 
L 273.578384 149.492571 
L 270.086987 152.598857 
L 269.228571 153.168828 
L 264.445714 155.333842 
L 263.021606 155.705143 
L 259.662857 156.448766 
L 254.88 156.874905 
L 250.097143 156.783675 
L 245.314286 156.268973 
z
" style="fill:#8ace88;fill-opacity:0.97;"/>
   </g>
   <g id="PathCollection_12">
    <path clip-path="url(#pe73ec6859a)" d="M 245.314286 156.268973 
L 250.097143 156.783675 
L 254.88 156.874905 
L 259.662857 156.448766 
L 263.021606 155.705143 
L 264.445714 155.333842 
L 269.228571 153.168828 
L 270.086987 152.598857 
L 273.578384 149.492571 
L 274.011429 148.939225 
L 275.618489 146.386286 
L 276.827351 143.28 
L 277.431917 140.173714 
L 277.558129 137.067429 
L 277.292281 133.961143 
L 276.691877 130.854857 
L 275.792702 127.748571 
L 274.613382 124.642286 
L 274.011429 123.360393 
L 273.185655 121.536 
L 271.530719 118.429714 
L 269.623079 115.323429 
L 269.228571 114.753458 
L 267.512813 112.217143 
L 265.163707 109.110857 
L 264.445714 108.246484 
L 262.600521 106.004571 
L 259.787994 102.898286 
L 259.662857 102.769176 
L 256.764242 99.792 
L 254.88 98.002213 
L 253.468525 96.685714 
L 250.097143 93.744016 
L 249.902313 93.579429 
L 246.047823 90.473143 
L 245.314286 89.909313 
L 241.850257 87.366857 
L 240.531429 86.43532 
L 237.259339 84.260571 
L 235.748571 83.283386 
L 232.196509 81.154286 
L 230.965714 80.428286 
L 226.540833 78.048 
L 226.182857 77.856379 
L 221.4 75.545743 
L 219.97563 74.941714 
L 216.617143 73.499841 
L 212.095599 71.835429 
L 211.834286 71.736956 
L 207.051429 70.236618 
L 202.268571 69.044412 
L 200.501701 68.729143 
L 197.485714 68.165313 
L 192.702857 67.65061 
L 187.92 67.559381 
L 183.137143 67.98552 
L 179.778394 68.729143 
L 178.354286 69.100444 
L 173.571429 71.265458 
L 172.713013 71.835429 
L 169.221616 74.941714 
L 168.788571 75.49506 
L 167.181511 78.048 
L 165.972649 81.154286 
L 165.368083 84.260571 
L 165.241871 87.366857 
L 165.507719 90.473143 
L 166.108123 93.579429 
L 167.007298 96.685714 
L 168.186618 99.792 
L 168.788571 101.073892 
L 169.614345 102.898286 
L 171.269281 106.004571 
L 173.176921 109.110857 
L 173.571429 109.680828 
L 175.287187 112.217143 
L 177.636293 115.323429 
L 178.354286 116.187801 
L 180.199479 118.429714 
L 183.012006 121.536 
L 183.137143 121.66511 
L 186.035758 124.642286 
L 187.92 126.432073 
L 189.331475 127.748571 
L 192.702857 130.69027 
L 192.897687 130.854857 
L 196.752177 133.961143 
L 197.485714 134.524973 
L 200.949743 137.067429 
L 202.268571 137.998966 
L 205.540661 140.173714 
L 207.051429 141.1509 
L 210.603491 143.28 
L 211.834286 144.006 
L 216.259167 146.386286 
L 216.617143 146.577906 
L 221.4 148.888543 
L 222.82437 149.492571 
L 226.182857 150.934445 
L 230.704401 152.598857 
L 230.965714 152.69733 
L 235.748571 154.197668 
L 240.531429 155.389874 
L 242.298299 155.705143 
z
M 233.204126 146.386286 
L 230.965714 145.7707 
L 226.182857 144.094615 
L 224.24868 143.28 
L 221.4 142.081746 
L 217.486495 140.173714 
L 216.617143 139.745514 
L 211.834286 137.078231 
L 211.81672 137.067429 
L 207.051429 134.056787 
L 206.911783 133.961143 
L 202.543633 130.854857 
L 202.268571 130.650331 
L 198.617377 127.748571 
L 197.485714 126.796597 
L 195.049618 124.642286 
L 192.702857 122.419357 
L 191.801693 121.536 
L 188.872583 118.429714 
L 187.92 117.326876 
L 186.224309 115.323429 
L 183.854924 112.217143 
L 183.137143 111.157859 
L 181.758903 109.110857 
L 179.946871 106.004571 
L 178.404298 102.898286 
L 178.354286 102.769985 
L 177.186381 99.792 
L 176.300107 96.685714 
L 175.783125 93.579429 
L 175.701467 90.473143 
L 176.158532 87.366857 
L 177.311416 84.260571 
L 178.354286 82.615198 
L 179.59092 81.154286 
L 183.137143 78.462448 
L 184.023675 78.048 
L 187.92 76.667138 
L 192.702857 75.925415 
L 197.485714 75.893689 
L 202.268571 76.397476 
L 207.051429 77.335528 
L 209.595874 78.048 
L 211.834286 78.663586 
L 216.617143 80.339671 
L 218.55132 81.154286 
L 221.4 82.35254 
L 225.313505 84.260571 
L 226.182857 84.688772 
L 230.965714 87.356055 
L 230.98328 87.366857 
L 235.748571 90.377499 
L 235.888217 90.473143 
L 240.256367 93.579429 
L 240.531429 93.783955 
L 244.182623 96.685714 
L 245.314286 97.637689 
L 247.750382 99.792 
L 250.097143 102.014929 
L 250.998307 102.898286 
L 253.927417 106.004571 
L 254.88 107.10741 
L 256.575691 109.110857 
L 258.945076 112.217143 
L 259.662857 113.276426 
L 261.041097 115.323429 
L 262.853129 118.429714 
L 264.395702 121.536 
L 264.445714 121.664301 
L 265.613619 124.642286 
L 266.499893 127.748571 
L 267.016875 130.854857 
L 267.098533 133.961143 
L 266.641468 137.067429 
L 265.488584 140.173714 
L 264.445714 141.819088 
L 263.20908 143.28 
L 259.662857 145.971837 
L 258.776325 146.386286 
L 254.88 147.767148 
L 250.097143 148.508871 
L 245.314286 148.540597 
L 240.531429 148.03681 
L 235.748571 147.098758 
z
" style="fill:#5ab769;fill-opacity:0.97;"/>
   </g>
   <g id="PathCollection_13">
    <path clip-path="url(#pe73ec6859a)" d="M 235.748571 147.098758 
L 240.531429 148.03681 
L 245.314286 148.540597 
L 250.097143 148.508871 
L 254.88 147.767148 
L 258.776325 146.386286 
L 259.662857 145.971837 
L 263.20908 143.28 
L 264.445714 141.819088 
L 265.488584 140.173714 
L 266.641468 137.067429 
L 267.098533 133.961143 
L 267.016875 130.854857 
L 266.499893 127.748571 
L 265.613619 124.642286 
L 264.445714 121.664301 
L 264.395702 121.536 
L 262.853129 118.429714 
L 261.041097 115.323429 
L 259.662857 113.276426 
L 258.945076 112.217143 
L 256.575691 109.110857 
L 254.88 107.10741 
L 253.927417 106.004571 
L 250.998307 102.898286 
L 250.097143 102.014929 
L 247.750382 99.792 
L 245.314286 97.637689 
L 244.182623 96.685714 
L 240.531429 93.783955 
L 240.256367 93.579429 
L 235.888217 90.473143 
L 235.748571 90.377499 
L 230.98328 87.366857 
L 230.965714 87.356055 
L 226.182857 84.688772 
L 225.313505 84.260571 
L 221.4 82.35254 
L 218.55132 81.154286 
L 216.617143 80.339671 
L 211.834286 78.663586 
L 209.595874 78.048 
L 207.051429 77.335528 
L 202.268571 76.397476 
L 197.485714 75.893689 
L 192.702857 75.925415 
L 187.92 76.667138 
L 184.023675 78.048 
L 183.137143 78.462448 
L 179.59092 81.154286 
L 178.354286 82.615198 
L 177.311416 84.260571 
L 176.158532 87.366857 
L 175.701467 90.473143 
L 175.783125 93.579429 
L 176.300107 96.685714 
L 177.186381 99.792 
L 178.354286 102.769985 
L 178.404298 102.898286 
L 179.946871 106.004571 
L 181.758903 109.110857 
L 183.137143 111.157859 
L 183.854924 112.217143 
L 186.224309 115.323429 
L 187.92 117.326876 
L 188.872583 118.429714 
L 191.801693 121.536 
L 192.702857 122.419357 
L 195.049618 124.642286 
L 197.485714 126.796597 
L 198.617377 127.748571 
L 202.268571 130.650331 
L 202.543633 130.854857 
L 206.911783 133.961143 
L 207.051429 134.056787 
L 211.81672 137.067429 
L 211.834286 137.078231 
L 216.617143 139.745514 
L 217.486495 140.173714 
L 221.4 142.081746 
L 224.24868 143.28 
L 226.182857 144.094615 
L 230.965714 145.7707 
L 233.204126 146.386286 
z
M 226.268456 137.067429 
L 226.182857 137.04049 
L 221.4 135.058639 
L 219.176302 133.961143 
L 216.617143 132.666563 
L 213.514212 130.854857 
L 211.834286 129.83717 
L 208.768599 127.748571 
L 207.051429 126.51966 
L 204.665218 124.642286 
L 202.268571 122.63655 
L 201.047718 121.536 
L 197.859887 118.429714 
L 197.485714 118.027557 
L 195.115985 115.323429 
L 192.702857 112.277329 
L 192.65711 112.217143 
L 190.650072 109.110857 
L 188.953228 106.004571 
L 187.92 103.602226 
L 187.626503 102.898286 
L 186.788163 99.792 
L 186.439071 96.685714 
L 186.710158 93.579429 
L 187.812104 90.473143 
L 187.92 90.305007 
L 190.733342 87.366857 
L 192.702857 86.131476 
L 197.485714 84.662729 
L 202.268571 84.372527 
L 207.051429 84.857677 
L 211.834286 85.901728 
L 216.531544 87.366857 
L 216.617143 87.393795 
L 221.4 89.375647 
L 223.623698 90.473143 
L 226.182857 91.767723 
L 229.285788 93.579429 
L 230.965714 94.597116 
L 234.031401 96.685714 
L 235.748571 97.914626 
L 238.134782 99.792 
L 240.531429 101.797735 
L 241.752282 102.898286 
L 244.940113 106.004571 
L 245.314286 106.406729 
L 247.684015 109.110857 
L 250.097143 112.156956 
L 250.14289 112.217143 
L 252.149928 115.323429 
L 253.846772 118.429714 
L 254.88 120.83206 
L 255.173497 121.536 
L 256.011837 124.642286 
L 256.360929 127.748571 
L 256.089842 130.854857 
L 254.987896 133.961143 
L 254.88 134.129279 
L 252.066658 137.067429 
L 250.097143 138.30281 
L 245.314286 139.771557 
L 240.531429 140.061758 
L 235.748571 139.576609 
L 230.965714 138.532557 
z
" style="fill:#319a50;fill-opacity:0.97;"/>
   </g>
   <g id="PathCollection_14">
    <path clip-path="url(#pe73ec6859a)" d="M 230.965714 138.532557 
L 235.748571 139.576609 
L 240.531429 140.061758 
L 245.314286 139.771557 
L 250.097143 138.30281 
L 252.066658 137.067429 
L 254.88 134.129279 
L 254.987896 133.961143 
L 256.089842 130.854857 
L 256.360929 127.748571 
L 256.011837 124.642286 
L 255.173497 121.536 
L 254.88 120.83206 
L 253.846772 118.429714 
L 252.149928 115.323429 
L 250.14289 112.217143 
L 250.097143 112.156956 
L 247.684015 109.110857 
L 245.314286 106.406729 
L 244.940113 106.004571 
L 241.752282 102.898286 
L 240.531429 101.797735 
L 238.134782 99.792 
L 235.748571 97.914626 
L 234.031401 96.685714 
L 230.965714 94.597116 
L 229.285788 93.579429 
L 226.182857 91.767723 
L 223.623698 90.473143 
L 221.4 89.375647 
L 216.617143 87.393795 
L 216.531544 87.366857 
L 211.834286 85.901728 
L 207.051429 84.857677 
L 202.268571 84.372527 
L 197.485714 84.662729 
L 192.702857 86.131476 
L 190.733342 87.366857 
L 187.92 90.305007 
L 187.812104 90.473143 
L 186.710158 93.579429 
L 186.439071 96.685714 
L 186.788163 99.792 
L 187.626503 102.898286 
L 187.92 103.602226 
L 188.953228 106.004571 
L 190.650072 109.110857 
L 192.65711 112.217143 
L 192.702857 112.277329 
L 195.115985 115.323429 
L 197.485714 118.027557 
L 197.859887 118.429714 
L 201.047718 121.536 
L 202.268571 122.63655 
L 204.665218 124.642286 
L 207.051429 126.51966 
L 208.768599 127.748571 
L 211.834286 129.83717 
L 213.514212 130.854857 
L 216.617143 132.666563 
L 219.176302 133.961143 
L 221.4 135.058639 
L 226.182857 137.04049 
L 226.268456 137.067429 
z
M 224.161797 127.748571 
L 221.4 126.66158 
L 217.476463 124.642286 
L 216.617143 124.172028 
L 212.695534 121.536 
L 211.834286 120.910764 
L 208.924203 118.429714 
L 207.051429 116.676755 
L 205.776584 115.323429 
L 203.248047 112.217143 
L 202.268571 110.744436 
L 201.295236 109.110857 
L 200.000313 106.004571 
L 199.359887 102.898286 
L 199.699436 99.792 
L 201.667017 96.685714 
L 202.268571 96.216667 
L 207.051429 94.706792 
L 211.834286 94.850226 
L 216.617143 95.92637 
L 218.638203 96.685714 
L 221.4 97.772705 
L 225.323537 99.792 
L 226.182857 100.262257 
L 230.104466 102.898286 
L 230.965714 103.523522 
L 233.875797 106.004571 
L 235.748571 107.757531 
L 237.023416 109.110857 
L 239.551953 112.217143 
L 240.531429 113.68985 
L 241.504764 115.323429 
L 242.799687 118.429714 
L 243.440113 121.536 
L 243.100564 124.642286 
L 241.132983 127.748571 
L 240.531429 128.217618 
L 235.748571 129.727494 
L 230.965714 129.58406 
L 226.182857 128.507916 
z
" style="fill:#117b38;fill-opacity:0.97;"/>
   </g>
   <g id="PathCollection_15">
    <path clip-path="url(#pe73ec6859a)" d="M 226.182857 128.507916 
L 230.965714 129.58406 
L 235.748571 129.727494 
L 240.531429 128.217618 
L 241.132983 127.748571 
L 243.100564 124.642286 
L 243.440113 121.536 
L 242.799687 118.429714 
L 241.504764 115.323429 
L 240.531429 113.68985 
L 239.551953 112.217143 
L 237.023416 109.110857 
L 235.748571 107.757531 
L 233.875797 106.004571 
L 230.965714 103.523522 
L 230.104466 102.898286 
L 226.182857 100.262257 
L 225.323537 99.792 
L 221.4 97.772705 
L 218.638203 96.685714 
L 216.617143 95.92637 
L 211.834286 94.850226 
L 207.051429 94.706792 
L 202.268571 96.216667 
L 201.667017 96.685714 
L 199.699436 99.792 
L 199.359887 102.898286 
L 200.000313 106.004571 
L 201.295236 109.110857 
L 202.268571 110.744436 
L 203.248047 112.217143 
L 205.776584 115.323429 
L 207.051429 116.676755 
L 208.924203 118.429714 
L 211.834286 120.910764 
L 212.695534 121.536 
L 216.617143 124.172028 
L 217.476463 124.642286 
L 221.4 126.66158 
L 224.161797 127.748571 
z
" style="fill:#005723;fill-opacity:0.97;"/>
   </g>
   <g id="patch_3">
    <path clip-path="url(#pe73ec6859a)" d="M 307.491429 48.227657 
L 388.8 48.227657 
L 388.8 34.56 
L 307.491429 34.56 
z
" style="fill:#ffffff;"/>
   </g>
   <g id="matplotlib.axis_1">
    <g id="xtick_1">
     <g id="line2d_1">
      <defs>
       <path d="M 0 0 
L 0 3.5 
" id="m29661a3806" style="stroke:#000000;stroke-width:0.8;"/>
      </defs>
      <g>
       <use style="stroke:#000000;stroke-width:0.8;" x="77.914286" xlink:href="#m29661a3806" y="252"/>
      </g>
     </g>
     <g id="text_1">
      <!-- 3 -->
      <g transform="translate(70.543192 266.598437)scale(0.1 -0.1)">
       <defs>
        <path d="M 10.59375 35.5 
L 73.1875 35.5 
L 73.1875 27.203125 
L 10.59375 27.203125 
z
" id="DejaVuSans-8722"/>
        <path d="M 40.578125 39.3125 
Q 47.65625 37.796875 51.625 33 
Q 55.609375 28.21875 55.609375 21.1875 
Q 55.609375 10.40625 48.1875 4.484375 
Q 40.765625 -1.421875 27.09375 -1.421875 
Q 22.515625 -1.421875 17.65625 -0.515625 
Q 12.796875 0.390625 7.625 2.203125 
L 7.625 11.71875 
Q 11.71875 9.328125 16.59375 8.109375 
Q 21.484375 6.890625 26.8125 6.890625 
Q 36.078125 6.890625 40.9375 10.546875 
Q 45.796875 14.203125 45.796875 21.1875 
Q 45.796875 27.640625 41.28125 31.265625 
Q 36.765625 34.90625 28.71875 34.90625 
L 20.21875 34.90625 
L 20.21875 43.015625 
L 29.109375 43.015625 
Q 36.375 43.015625 40.234375 45.921875 
Q 44.09375 48.828125 44.09375 54.296875 
Q 44.09375 59.90625 40.109375 62.90625 
Q 36.140625 65.921875 28.71875 65.921875 
Q 24.65625 65.921875 20.015625 65.03125 
Q 15.375 64.15625 9.8125 62.3125 
L 9.8125 71.09375 
Q 15.4375 72.65625 20.34375 73.4375 
Q 25.25 74.21875 29.59375 74.21875 
Q 40.828125 74.21875 47.359375 69.109375 
Q 53.90625 64.015625 53.90625 55.328125 
Q 53.90625 49.265625 50.4375 45.09375 
Q 46.96875 40.921875 40.578125 39.3125 
z
" id="DejaVuSans-51"/>
       </defs>
       <use xlink:href="#DejaVuSans-8722"/>
       <use x="83.789062" xlink:href="#DejaVuSans-51"/>
      </g>
     </g>
    </g>
    <g id="xtick_2">
     <g id="line2d_2">
      <g>
       <use style="stroke:#000000;stroke-width:0.8;" x="125.742857" xlink:href="#m29661a3806" y="252"/>
      </g>
     </g>
     <g id="text_2">
      <!-- 2 -->
      <g transform="translate(118.371763 266.598437)scale(0.1 -0.1)">
       <defs>
        <path d="M 19.1875 8.296875 
L 53.609375 8.296875 
L 53.609375 0 
L 7.328125 0 
L 7.328125 8.296875 
Q 12.9375 14.109375 22.625 23.890625 
Q 32.328125 33.6875 34.8125 36.53125 
Q 39.546875 41.84375 41.421875 45.53125 
Q 43.3125 49.21875 43.3125 52.78125 
Q 43.3125 58.59375 39.234375 62.25 
Q 35.15625 65.921875 28.609375 65.921875 
Q 23.96875 65.921875 18.8125 64.3125 
Q 13.671875 62.703125 7.8125 59.421875 
L 7.8125 69.390625 
Q 13.765625 71.78125 18.9375 73 
Q 24.125 74.21875 28.421875 74.21875 
Q 39.75 74.21875 46.484375 68.546875 
Q 53.21875 62.890625 53.21875 53.421875 
Q 53.21875 48.921875 51.53125 44.890625 
Q 49.859375 40.875 45.40625 35.40625 
Q 44.1875 33.984375 37.640625 27.21875 
Q 31.109375 20.453125 19.1875 8.296875 
z
" id="DejaVuSans-50"/>
       </defs>
       <use xlink:href="#DejaVuSans-8722"/>
       <use x="83.789062" xlink:href="#DejaVuSans-50"/>
      </g>
     </g>
    </g>
    <g id="xtick_3">
     <g id="line2d_3">
      <g>
       <use style="stroke:#000000;stroke-width:0.8;" x="173.571429" xlink:href="#m29661a3806" y="252"/>
      </g>
     </g>
     <g id="text_3">
      <!-- 1 -->
      <g transform="translate(166.200335 266.598437)scale(0.1 -0.1)">
       <defs>
        <path d="M 12.40625 8.296875 
L 28.515625 8.296875 
L 28.515625 63.921875 
L 10.984375 60.40625 
L 10.984375 69.390625 
L 28.421875 72.90625 
L 38.28125 72.90625 
L 38.28125 8.296875 
L 54.390625 8.296875 
L 54.390625 0 
L 12.40625 0 
z
" id="DejaVuSans-49"/>
       </defs>
       <use xlink:href="#DejaVuSans-8722"/>
       <use x="83.789062" xlink:href="#DejaVuSans-49"/>
      </g>
     </g>
    </g>
    <g id="xtick_4">
     <g id="line2d_4">
      <g>
       <use style="stroke:#000000;stroke-width:0.8;" x="221.4" xlink:href="#m29661a3806" y="252"/>
      </g>
     </g>
     <g id="text_4">
      <!-- 0 -->
      <g transform="translate(218.21875 266.598437)scale(0.1 -0.1)">
       <defs>
        <path d="M 31.78125 66.40625 
Q 24.171875 66.40625 20.328125 58.90625 
Q 16.5 51.421875 16.5 36.375 
Q 16.5 21.390625 20.328125 13.890625 
Q 24.171875 6.390625 31.78125 6.390625 
Q 39.453125 6.390625 43.28125 13.890625 
Q 47.125 21.390625 47.125 36.375 
Q 47.125 51.421875 43.28125 58.90625 
Q 39.453125 66.40625 31.78125 66.40625 
z
M 31.78125 74.21875 
Q 44.046875 74.21875 50.515625 64.515625 
Q 56.984375 54.828125 56.984375 36.375 
Q 56.984375 17.96875 50.515625 8.265625 
Q 44.046875 -1.421875 31.78125 -1.421875 
Q 19.53125 -1.421875 13.0625 8.265625 
Q 6.59375 17.96875 6.59375 36.375 
Q 6.59375 54.828125 13.0625 64.515625 
Q 19.53125 74.21875 31.78125 74.21875 
z
" id="DejaVuSans-48"/>
       </defs>
       <use xlink:href="#DejaVuSans-48"/>
      </g>
     </g>
    </g>
    <g id="xtick_5">
     <g id="line2d_5">
      <g>
       <use style="stroke:#000000;stroke-width:0.8;" x="269.228571" xlink:href="#m29661a3806" y="252"/>
      </g>
     </g>
     <g id="text_5">
      <!-- 1 -->
      <g transform="translate(266.047321 266.598437)scale(0.1 -0.1)">
       <use xlink:href="#DejaVuSans-49"/>
      </g>
     </g>
    </g>
    <g id="xtick_6">
     <g id="line2d_6">
      <g>
       <use style="stroke:#000000;stroke-width:0.8;" x="317.057143" xlink:href="#m29661a3806" y="252"/>
      </g>
     </g>
     <g id="text_6">
      <!-- 2 -->
      <g transform="translate(313.875893 266.598437)scale(0.1 -0.1)">
       <use xlink:href="#DejaVuSans-50"/>
      </g>
     </g>
    </g>
    <g id="xtick_7">
     <g id="line2d_7">
      <g>
       <use style="stroke:#000000;stroke-width:0.8;" x="364.885714" xlink:href="#m29661a3806" y="252"/>
      </g>
     </g>
     <g id="text_7">
      <!-- 3 -->
      <g transform="translate(361.704464 266.598437)scale(0.1 -0.1)">
       <use xlink:href="#DejaVuSans-51"/>
      </g>
     </g>
    </g>
    <g id="text_8">
     <!-- _0 -->
     <g transform="translate(204.089063 286.0375)scale(0.18 -0.18)">
      <defs>
       <path d="M 5.609375 36.375 
Q 5.609375 53.65625 14.8125 63.9375 
Q 24.03125 74.21875 39.359375 74.21875 
Q 54.734375 74.21875 63.90625 63.9375 
Q 73.09375 53.65625 73.09375 36.421875 
Q 73.09375 19.140625 63.90625 8.859375 
Q 54.734375 -1.421875 39.359375 -1.421875 
Q 24.03125 -1.421875 14.8125 8.828125 
Q 5.609375 19.09375 5.609375 36.375 
z
M 39.453125 66.21875 
Q 29.59375 66.21875 23.34375 59.28125 
Q 17.09375 52.34375 16.5 42.828125 
L 62.40625 42.828125 
Q 61.71875 52.34375 55.515625 59.28125 
Q 49.3125 66.21875 39.453125 66.21875 
z
M 16.015625 34.671875 
Q 16.40625 22.125 22.53125 14.359375 
Q 28.65625 6.59375 39.40625 6.59375 
Q 50.140625 6.59375 56.1875 14.328125 
Q 62.25 22.078125 62.640625 34.671875 
z
" id="DejaVuSans-1012"/>
       <path d="M 50.984375 -16.609375 
L 50.984375 -23.578125 
L -0.984375 -23.578125 
L -0.984375 -16.609375 
z
" id="DejaVuSans-95"/>
      </defs>
      <use xlink:href="#DejaVuSans-1012"/>
      <use x="78.710938" xlink:href="#DejaVuSans-95"/>
      <use x="128.710938" xlink:href="#DejaVuSans-48"/>
     </g>
    </g>
   </g>
   <g id="matplotlib.axis_2">
    <g id="ytick_1">
     <g id="line2d_8">
      <defs>
       <path d="M 0 0 
L -3.5 0 
" id="madf0d45cac" style="stroke:#000000;stroke-width:0.8;"/>
      </defs>
      <g>
       <use style="stroke:#000000;stroke-width:0.8;" x="54" xlink:href="#madf0d45cac" y="236.468571"/>
      </g>
     </g>
     <g id="text_9">
      <!-- 3 -->
      <g transform="translate(32.257812 240.26779)scale(0.1 -0.1)">
       <use xlink:href="#DejaVuSans-8722"/>
       <use x="83.789062" xlink:href="#DejaVuSans-51"/>
      </g>
     </g>
    </g>
    <g id="ytick_2">
     <g id="line2d_9">
      <g>
       <use style="stroke:#000000;stroke-width:0.8;" x="54" xlink:href="#madf0d45cac" y="205.405714"/>
      </g>
     </g>
     <g id="text_10">
      <!-- 2 -->
      <g transform="translate(32.257812 209.204933)scale(0.1 -0.1)">
       <use xlink:href="#DejaVuSans-8722"/>
       <use x="83.789062" xlink:href="#DejaVuSans-50"/>
      </g>
     </g>
    </g>
    <g id="ytick_3">
     <g id="line2d_10">
      <g>
       <use style="stroke:#000000;stroke-width:0.8;" x="54" xlink:href="#madf0d45cac" y="174.342857"/>
      </g>
     </g>
     <g id="text_11">
      <!-- 1 -->
      <g transform="translate(32.257812 178.142076)scale(0.1 -0.1)">
       <use xlink:href="#DejaVuSans-8722"/>
       <use x="83.789062" xlink:href="#DejaVuSans-49"/>
      </g>
     </g>
    </g>
    <g id="ytick_4">
     <g id="line2d_11">
      <g>
       <use style="stroke:#000000;stroke-width:0.8;" x="54" xlink:href="#madf0d45cac" y="143.28"/>
      </g>
     </g>
     <g id="text_12">
      <!-- 0 -->
      <g transform="translate(40.6375 147.079219)scale(0.1 -0.1)">
       <use xlink:href="#DejaVuSans-48"/>
      </g>
     </g>
    </g>
    <g id="ytick_5">
     <g id="line2d_12">
      <g>
       <use style="stroke:#000000;stroke-width:0.8;" x="54" xlink:href="#madf0d45cac" y="112.217143"/>
      </g>
     </g>
     <g id="text_13">
      <!-- 1 -->
      <g transform="translate(40.6375 116.016362)scale(0.1 -0.1)">
       <use xlink:href="#DejaVuSans-49"/>
      </g>
     </g>
    </g>
    <g id="ytick_6">
     <g id="line2d_13">
      <g>
       <use style="stroke:#000000;stroke-width:0.8;" x="54" xlink:href="#madf0d45cac" y="81.154286"/>
      </g>
     </g>
     <g id="text_14">
      <!-- 2 -->
      <g transform="translate(40.6375 84.953504)scale(0.1 -0.1)">
       <use xlink:href="#DejaVuSans-50"/>
      </g>
     </g>
    </g>
    <g id="ytick_7">
     <g id="line2d_14">
      <g>
       <use style="stroke:#000000;stroke-width:0.8;" x="54" xlink:href="#madf0d45cac" y="50.091429"/>
      </g>
     </g>
     <g id="text_15">
      <!-- 3 -->
      <g transform="translate(40.6375 53.890647)scale(0.1 -0.1)">
       <use xlink:href="#DejaVuSans-51"/>
      </g>
     </g>
    </g>
    <g id="text_16">
     <!-- _1 -->
     <g transform="translate(24.01375 160.590937)rotate(-90)scale(0.18 -0.18)">
      <use xlink:href="#DejaVuSans-1012"/>
      <use x="78.710938" xlink:href="#DejaVuSans-95"/>
      <use x="128.710938" xlink:href="#DejaVuSans-49"/>
     </g>
    </g>
   </g>
   <g id="patch_4">
    <path d="M 54 252 
L 54 34.56 
" style="fill:none;stroke:#000000;stroke-linecap:square;stroke-linejoin:miter;stroke-width:0.8;"/>
   </g>
   <g id="patch_5">
    <path d="M 388.8 252 
L 388.8 34.56 
" style="fill:none;stroke:#000000;stroke-linecap:square;stroke-linejoin:miter;stroke-width:0.8;"/>
   </g>
   <g id="patch_6">
    <path d="M 54 252 
L 388.8 252 
" style="fill:none;stroke:#000000;stroke-linecap:square;stroke-linejoin:miter;stroke-width:0.8;"/>
   </g>
   <g id="patch_7">
    <path d="M 54 34.56 
L 388.8 34.56 
" style="fill:none;stroke:#000000;stroke-linecap:square;stroke-linejoin:miter;stroke-width:0.8;"/>
   </g>
   <g id="text_17">
    <!-- Client distributions only -->
    <g transform="translate(114.610781 28.56)scale(0.18 -0.18)">
     <defs>
      <path d="M 64.40625 67.28125 
L 64.40625 56.890625 
Q 59.421875 61.53125 53.78125 63.8125 
Q 48.140625 66.109375 41.796875 66.109375 
Q 29.296875 66.109375 22.65625 58.46875 
Q 16.015625 50.828125 16.015625 36.375 
Q 16.015625 21.96875 22.65625 14.328125 
Q 29.296875 6.6875 41.796875 6.6875 
Q 48.140625 6.6875 53.78125 8.984375 
Q 59.421875 11.28125 64.40625 15.921875 
L 64.40625 5.609375 
Q 59.234375 2.09375 53.4375 0.328125 
Q 47.65625 -1.421875 41.21875 -1.421875 
Q 24.65625 -1.421875 15.125 8.703125 
Q 5.609375 18.84375 5.609375 36.375 
Q 5.609375 53.953125 15.125 64.078125 
Q 24.65625 74.21875 41.21875 74.21875 
Q 47.75 74.21875 53.53125 72.484375 
Q 59.328125 70.75 64.40625 67.28125 
z
" id="DejaVuSans-67"/>
      <path d="M 9.421875 75.984375 
L 18.40625 75.984375 
L 18.40625 0 
L 9.421875 0 
z
" id="DejaVuSans-108"/>
      <path d="M 9.421875 54.6875 
L 18.40625 54.6875 
L 18.40625 0 
L 9.421875 0 
z
M 9.421875 75.984375 
L 18.40625 75.984375 
L 18.40625 64.59375 
L 9.421875 64.59375 
z
" id="DejaVuSans-105"/>
      <path d="M 56.203125 29.59375 
L 56.203125 25.203125 
L 14.890625 25.203125 
Q 15.484375 15.921875 20.484375 11.0625 
Q 25.484375 6.203125 34.421875 6.203125 
Q 39.59375 6.203125 44.453125 7.46875 
Q 49.3125 8.734375 54.109375 11.28125 
L 54.109375 2.78125 
Q 49.265625 0.734375 44.1875 -0.34375 
Q 39.109375 -1.421875 33.890625 -1.421875 
Q 20.796875 -1.421875 13.15625 6.1875 
Q 5.515625 13.8125 5.515625 26.8125 
Q 5.515625 40.234375 12.765625 48.109375 
Q 20.015625 56 32.328125 56 
Q 43.359375 56 49.78125 48.890625 
Q 56.203125 41.796875 56.203125 29.59375 
z
M 47.21875 32.234375 
Q 47.125 39.59375 43.09375 43.984375 
Q 39.0625 48.390625 32.421875 48.390625 
Q 24.90625 48.390625 20.390625 44.140625 
Q 15.875 39.890625 15.1875 32.171875 
z
" id="DejaVuSans-101"/>
      <path d="M 54.890625 33.015625 
L 54.890625 0 
L 45.90625 0 
L 45.90625 32.71875 
Q 45.90625 40.484375 42.875 44.328125 
Q 39.84375 48.1875 33.796875 48.1875 
Q 26.515625 48.1875 22.3125 43.546875 
Q 18.109375 38.921875 18.109375 30.90625 
L 18.109375 0 
L 9.078125 0 
L 9.078125 54.6875 
L 18.109375 54.6875 
L 18.109375 46.1875 
Q 21.34375 51.125 25.703125 53.5625 
Q 30.078125 56 35.796875 56 
Q 45.21875 56 50.046875 50.171875 
Q 54.890625 44.34375 54.890625 33.015625 
z
" id="DejaVuSans-110"/>
      <path d="M 18.3125 70.21875 
L 18.3125 54.6875 
L 36.8125 54.6875 
L 36.8125 47.703125 
L 18.3125 47.703125 
L 18.3125 18.015625 
Q 18.3125 11.328125 20.140625 9.421875 
Q 21.96875 7.515625 27.59375 7.515625 
L 36.8125 7.515625 
L 36.8125 0 
L 27.59375 0 
Q 17.1875 0 13.234375 3.875 
Q 9.28125 7.765625 9.28125 18.015625 
L 9.28125 47.703125 
L 2.6875 47.703125 
L 2.6875 54.6875 
L 9.28125 54.6875 
L 9.28125 70.21875 
z
" id="DejaVuSans-116"/>
      <path id="DejaVuSans-32"/>
      <path d="M 45.40625 46.390625 
L 45.40625 75.984375 
L 54.390625 75.984375 
L 54.390625 0 
L 45.40625 0 
L 45.40625 8.203125 
Q 42.578125 3.328125 38.25 0.953125 
Q 33.9375 -1.421875 27.875 -1.421875 
Q 17.96875 -1.421875 11.734375 6.484375 
Q 5.515625 14.40625 5.515625 27.296875 
Q 5.515625 40.1875 11.734375 48.09375 
Q 17.96875 56 27.875 56 
Q 33.9375 56 38.25 53.625 
Q 42.578125 51.265625 45.40625 46.390625 
z
M 14.796875 27.296875 
Q 14.796875 17.390625 18.875 11.75 
Q 22.953125 6.109375 30.078125 6.109375 
Q 37.203125 6.109375 41.296875 11.75 
Q 45.40625 17.390625 45.40625 27.296875 
Q 45.40625 37.203125 41.296875 42.84375 
Q 37.203125 48.484375 30.078125 48.484375 
Q 22.953125 48.484375 18.875 42.84375 
Q 14.796875 37.203125 14.796875 27.296875 
z
" id="DejaVuSans-100"/>
      <path d="M 44.28125 53.078125 
L 44.28125 44.578125 
Q 40.484375 46.53125 36.375 47.5 
Q 32.28125 48.484375 27.875 48.484375 
Q 21.1875 48.484375 17.84375 46.4375 
Q 14.5 44.390625 14.5 40.28125 
Q 14.5 37.15625 16.890625 35.375 
Q 19.28125 33.59375 26.515625 31.984375 
L 29.59375 31.296875 
Q 39.15625 29.25 43.1875 25.515625 
Q 47.21875 21.78125 47.21875 15.09375 
Q 47.21875 7.46875 41.1875 3.015625 
Q 35.15625 -1.421875 24.609375 -1.421875 
Q 20.21875 -1.421875 15.453125 -0.5625 
Q 10.6875 0.296875 5.421875 2 
L 5.421875 11.28125 
Q 10.40625 8.6875 15.234375 7.390625 
Q 20.0625 6.109375 24.8125 6.109375 
Q 31.15625 6.109375 34.5625 8.28125 
Q 37.984375 10.453125 37.984375 14.40625 
Q 37.984375 18.0625 35.515625 20.015625 
Q 33.0625 21.96875 24.703125 23.78125 
L 21.578125 24.515625 
Q 13.234375 26.265625 9.515625 29.90625 
Q 5.8125 33.546875 5.8125 39.890625 
Q 5.8125 47.609375 11.28125 51.796875 
Q 16.75 56 26.8125 56 
Q 31.78125 56 36.171875 55.265625 
Q 40.578125 54.546875 44.28125 53.078125 
z
" id="DejaVuSans-115"/>
      <path d="M 41.109375 46.296875 
Q 39.59375 47.171875 37.8125 47.578125 
Q 36.03125 48 33.890625 48 
Q 26.265625 48 22.1875 43.046875 
Q 18.109375 38.09375 18.109375 28.8125 
L 18.109375 0 
L 9.078125 0 
L 9.078125 54.6875 
L 18.109375 54.6875 
L 18.109375 46.1875 
Q 20.953125 51.171875 25.484375 53.578125 
Q 30.03125 56 36.53125 56 
Q 37.453125 56 38.578125 55.875 
Q 39.703125 55.765625 41.0625 55.515625 
z
" id="DejaVuSans-114"/>
      <path d="M 48.6875 27.296875 
Q 48.6875 37.203125 44.609375 42.84375 
Q 40.53125 48.484375 33.40625 48.484375 
Q 26.265625 48.484375 22.1875 42.84375 
Q 18.109375 37.203125 18.109375 27.296875 
Q 18.109375 17.390625 22.1875 11.75 
Q 26.265625 6.109375 33.40625 6.109375 
Q 40.53125 6.109375 44.609375 11.75 
Q 48.6875 17.390625 48.6875 27.296875 
z
M 18.109375 46.390625 
Q 20.953125 51.265625 25.265625 53.625 
Q 29.59375 56 35.59375 56 
Q 45.5625 56 51.78125 48.09375 
Q 58.015625 40.1875 58.015625 27.296875 
Q 58.015625 14.40625 51.78125 6.484375 
Q 45.5625 -1.421875 35.59375 -1.421875 
Q 29.59375 -1.421875 25.265625 0.953125 
Q 20.953125 3.328125 18.109375 8.203125 
L 18.109375 0 
L 9.078125 0 
L 9.078125 75.984375 
L 18.109375 75.984375 
z
" id="DejaVuSans-98"/>
      <path d="M 8.5 21.578125 
L 8.5 54.6875 
L 17.484375 54.6875 
L 17.484375 21.921875 
Q 17.484375 14.15625 20.5 10.265625 
Q 23.53125 6.390625 29.59375 6.390625 
Q 36.859375 6.390625 41.078125 11.03125 
Q 45.3125 15.671875 45.3125 23.6875 
L 45.3125 54.6875 
L 54.296875 54.6875 
L 54.296875 0 
L 45.3125 0 
L 45.3125 8.40625 
Q 42.046875 3.421875 37.71875 1 
Q 33.40625 -1.421875 27.6875 -1.421875 
Q 18.265625 -1.421875 13.375 4.4375 
Q 8.5 10.296875 8.5 21.578125 
z
M 31.109375 56 
z
" id="DejaVuSans-117"/>
      <path d="M 30.609375 48.390625 
Q 23.390625 48.390625 19.1875 42.75 
Q 14.984375 37.109375 14.984375 27.296875 
Q 14.984375 17.484375 19.15625 11.84375 
Q 23.34375 6.203125 30.609375 6.203125 
Q 37.796875 6.203125 41.984375 11.859375 
Q 46.1875 17.53125 46.1875 27.296875 
Q 46.1875 37.015625 41.984375 42.703125 
Q 37.796875 48.390625 30.609375 48.390625 
z
M 30.609375 56 
Q 42.328125 56 49.015625 48.375 
Q 55.71875 40.765625 55.71875 27.296875 
Q 55.71875 13.875 49.015625 6.21875 
Q 42.328125 -1.421875 30.609375 -1.421875 
Q 18.84375 -1.421875 12.171875 6.21875 
Q 5.515625 13.875 5.515625 27.296875 
Q 5.515625 40.765625 12.171875 48.375 
Q 18.84375 56 30.609375 56 
z
" id="DejaVuSans-111"/>
      <path d="M 32.171875 -5.078125 
Q 28.375 -14.84375 24.75 -17.8125 
Q 21.140625 -20.796875 15.09375 -20.796875 
L 7.90625 -20.796875 
L 7.90625 -13.28125 
L 13.1875 -13.28125 
Q 16.890625 -13.28125 18.9375 -11.515625 
Q 21 -9.765625 23.484375 -3.21875 
L 25.09375 0.875 
L 2.984375 54.6875 
L 12.5 54.6875 
L 29.59375 11.921875 
L 46.6875 54.6875 
L 56.203125 54.6875 
z
" id="DejaVuSans-121"/>
     </defs>
     <use xlink:href="#DejaVuSans-67"/>
     <use x="69.824219" xlink:href="#DejaVuSans-108"/>
     <use x="97.607422" xlink:href="#DejaVuSans-105"/>
     <use x="125.390625" xlink:href="#DejaVuSans-101"/>
     <use x="186.914062" xlink:href="#DejaVuSans-110"/>
     <use x="250.292969" xlink:href="#DejaVuSans-116"/>
     <use x="289.501953" xlink:href="#DejaVuSans-32"/>
     <use x="321.289062" xlink:href="#DejaVuSans-100"/>
     <use x="384.765625" xlink:href="#DejaVuSans-105"/>
     <use x="412.548828" xlink:href="#DejaVuSans-115"/>
     <use x="464.648438" xlink:href="#DejaVuSans-116"/>
     <use x="503.857422" xlink:href="#DejaVuSans-114"/>
     <use x="544.970703" xlink:href="#DejaVuSans-105"/>
     <use x="572.753906" xlink:href="#DejaVuSans-98"/>
     <use x="636.230469" xlink:href="#DejaVuSans-117"/>
     <use x="699.609375" xlink:href="#DejaVuSans-116"/>
     <use x="738.818359" xlink:href="#DejaVuSans-105"/>
     <use x="766.601562" xlink:href="#DejaVuSans-111"/>
     <use x="827.783203" xlink:href="#DejaVuSans-110"/>
     <use x="891.162109" xlink:href="#DejaVuSans-115"/>
     <use x="943.261719" xlink:href="#DejaVuSans-32"/>
     <use x="975.048828" xlink:href="#DejaVuSans-111"/>
     <use x="1036.230469" xlink:href="#DejaVuSans-110"/>
     <use x="1099.609375" xlink:href="#DejaVuSans-108"/>
     <use x="1127.392578" xlink:href="#DejaVuSans-121"/>
    </g>
   </g>
  </g>
 </g>
 <defs>
  <clipPath id="pe73ec6859a">
   <rect height="217.44" width="334.8" x="54" y="34.56"/>
  </clipPath>
 </defs>
</svg>
